<?xml version="1.0" encoding="UTF-8" standalone="no"?>
<!-- Created with Inkscape (http://www.inkscape.org/) -->

<svg
   width="210mm"
   height="297mm"
   viewBox="0 0 210 297"
   version="1.1"
   id="svg5"
   inkscape:version="1.1.1 (1:1.1+202109281944+c3084ef5ed)"
   sodipodi:docname="c_letter.svg"
   xmlns:inkscape="http://www.inkscape.org/namespaces/inkscape"
   xmlns:sodipodi="http://sodipodi.sourceforge.net/DTD/sodipodi-0.dtd"
   xmlns:xlink="http://www.w3.org/1999/xlink"
   xmlns="http://www.w3.org/2000/svg"
   xmlns:svg="http://www.w3.org/2000/svg">
  <sodipodi:namedview
     id="namedview7"
     pagecolor="#ffffff"
     bordercolor="#666666"
     borderopacity="1.0"
     inkscape:pageshadow="2"
     inkscape:pageopacity="1"
     inkscape:pagecheckerboard="0"
     inkscape:document-units="mm"
     showgrid="false"
     showborder="false"
     inkscape:zoom="0.47584683"
     inkscape:cx="917.31199"
     inkscape:cy="744.98763"
     inkscape:window-width="1294"
     inkscape:window-height="704"
     inkscape:window-x="0"
     inkscape:window-y="0"
     inkscape:window-maximized="1"
     inkscape:current-layer="layer1" />
  <defs
     id="defs2">
    <linearGradient
       inkscape:collect="always"
       id="linearGradient7018">
      <stop
         style="stop-color:#803600;stop-opacity:1;"
         offset="0"
         id="stop7014" />
      <stop
         style="stop-color:#807f2e;stop-opacity:0.81215507"
         offset="1"
         id="stop7016" />
    </linearGradient>
    <linearGradient
       inkscape:collect="always"
       id="linearGradient6756">
      <stop
         style="stop-color:#18004e;stop-opacity:0.97694749"
         offset="0"
         id="stop6752" />
      <stop
         style="stop-color:#120ec9;stop-opacity:0.35116947"
         offset="1"
         id="stop6754" />
    </linearGradient>
    <linearGradient
       inkscape:collect="always"
       id="7018">
      <stop
         style="stop-color:#438700;stop-opacity:1"
         offset="0"
         id="stop6234" />
      <stop
         style="stop-color:#080600;stop-opacity:0.96669662"
         offset="1"
         id="stop6236" />
    </linearGradient>
    <linearGradient
       inkscape:collect="always"
       id="linearGradient6130">
      <stop
         style="stop-color:#803600;stop-opacity:1;"
         offset="0"
         id="stop6126" />
      <stop
         style="stop-color:#d0b14e;stop-opacity:0.73034042"
         offset="1"
         id="stop6128" />
    </linearGradient>
    <linearGradient
       inkscape:collect="always"
       xlink:href="#linearGradient6756"
       id="linearGradient6132"
       x1="-2.9986401"
       y1="127.98972"
       x2="146.29184"
       y2="125.96694"
       gradientUnits="userSpaceOnUse"
       gradientTransform="translate(4.6182437)" />
    <linearGradient
       inkscape:collect="always"
       xlink:href="#linearGradient7018"
       id="linearGradient6134"
       x1="12.033584"
       y1="183.54028"
       x2="111.60094"
       y2="182.55885"
       gradientUnits="userSpaceOnUse"
       gradientTransform="translate(4.6182437)" />
    <linearGradient
       inkscape:collect="always"
       xlink:href="#7018"
       id="linearGradient6136"
       x1="41.269379"
       y1="138.96504"
       x2="96.094315"
       y2="149.49707"
       gradientUnits="userSpaceOnUse"
       gradientTransform="translate(4.6182437)" />
    <linearGradient
       inkscape:collect="always"
       xlink:href="#linearGradient6130"
       id="linearGradient6138"
       x1="84.435524"
       y1="208.51822"
       x2="139.27057"
       y2="213.60133"
       gradientUnits="userSpaceOnUse"
       gradientTransform="translate(4.6182437)" />
    <filter
       inkscape:collect="always"
       style="color-interpolation-filters:sRGB"
       id="filter9322"
       x="-0.065376614"
       y="-0.69615253"
       width="1.1307532"
       height="2.3923051">
      <feGaussianBlur
         inkscape:collect="always"
         stdDeviation="3.7819594"
         id="feGaussianBlur9324" />
    </filter>
  </defs>
  <g
     inkscape:label="Layer 1"
     inkscape:groupmode="layer"
     id="layer1">
    <path
       id="rect4376"
       style="fill:url(#linearGradient6132);fill-opacity:1;fill-rule:nonzero;stroke:none;stroke-width:0;stroke-miterlimit:4;stroke-dasharray:none;stroke-opacity:0.974554;paint-order:markers fill stroke"
       d="m 82.673943,88.5455 a 79.391218,76.40988 0 0 0 -6.229077,0.235643 79.391218,76.40988 0 0 0 -6.190319,0.705384 79.391218,76.40988 0 0 0 -6.114356,1.170469 79.391218,76.40988 0 0 0 -5.999634,1.628325 79.391218,76.40988 0 0 0 -5.84822,2.076876 79.391218,76.40988 0 0 0 -5.661155,2.511476 79.391218,76.40988 0 0 0 -5.438944,2.931604 79.391218,76.40988 0 0 0 -5.183145,3.333133 79.391218,76.40988 0 0 0 -4.895826,3.7145 79.391218,76.40988 0 0 0 -4.577498,4.07262 79.391218,76.40988 0 0 0 -4.231266,4.40593 79.391218,76.40988 0 0 0 -3.859196,4.71134 79.391218,76.40988 0 0 0 -3.463355,4.98884 79.391218,76.40988 0 0 0 -3.046326,5.23431 79.391218,76.40988 0 0 0 -2.6096593,5.44876 79.391218,76.40988 0 0 0 -2.1574911,5.6286 79.391218,76.40988 0 0 0 -1.6924032,5.77484 79.391218,76.40988 0 0 0 -1.2159464,5.88439 79.391218,76.40988 0 0 0 -0.7327718,5.95778 79.391218,76.40988 0 0 0 -0.2444295,5.99498 79.391218,76.40988 0 0 0 0.2444295,5.99499 79.391218,76.40988 0 0 0 0.7327718,5.95829 79.391218,76.40988 0 0 0 1.2159464,5.88439 79.391218,76.40988 0 0 0 1.6924032,5.77433 79.391218,76.40988 0 0 0 2.1574911,5.62911 79.391218,76.40988 0 0 0 2.6096593,5.44825 79.391218,76.40988 0 0 0 3.046326,5.23482 79.391218,76.40988 0 0 0 3.463355,4.98884 79.391218,76.40988 0 0 0 3.859196,4.71135 79.391218,76.40988 0 0 0 4.231266,4.40593 79.391218,76.40988 0 0 0 4.577498,4.07262 79.391218,76.40988 0 0 0 4.895826,3.71398 79.391218,76.40988 0 0 0 5.183145,3.33365 79.391218,76.40988 0 0 0 5.438944,2.93109 79.391218,76.40988 0 0 0 5.661155,2.51199 79.391218,76.40988 0 0 0 5.84822,2.07687 79.391218,76.40988 0 0 0 5.999634,1.62833 79.391218,76.40988 0 0 0 6.114356,1.17047 79.391218,76.40988 0 0 0 6.190319,0.70538 79.391218,76.40988 0 0 0 6.229077,0.23565 79.391218,76.40988 0 0 0 2.078427,-0.0264 79.391218,76.40988 0 0 0 2.07636,-0.0786 79.391218,76.40988 0 0 0 2.074291,-0.13074 79.391218,76.40988 0 0 0 2.069642,-0.18345 79.391218,76.40988 0 0 0 2.063956,-0.23461 79.391218,76.40988 0 0 0 2.05672,-0.28732 79.391218,76.40988 0 0 0 2.048455,-0.33848 79.391218,76.40988 0 0 0 2.038635,-0.39067 79.391218,76.40988 0 0 0 2.026751,-0.44132 79.391218,76.40988 0 0 0 2.01486,-0.49248 79.391218,76.40988 0 0 0 2.0004,-0.54311 79.391218,76.40988 0 0 0 1.9849,-0.59274 79.391218,76.40988 0 0 0 1.96783,-0.64337 79.391218,76.40988 0 0 0 1.94976,-0.69194 79.391218,76.40988 0 0 0 1.93063,-0.74156 79.391218,76.40988 0 0 0 1.90944,-0.78962 79.391218,76.40988 0 0 0 1.88774,-0.83716 79.391218,76.40988 0 0 0 1.86397,-0.88521 79.391218,76.40988 0 0 0 1.83916,-0.93121 79.391218,76.40988 0 0 0 1.81385,-0.9772 79.391218,76.40988 0 0 0 1.78593,-1.02268 79.391218,76.40988 0 0 0 1.75804,-1.06763 79.391218,76.40988 0 0 0 1.72806,-1.11156 79.391218,76.40988 0 0 0 1.69705,-1.15445 79.391218,76.40988 0 0 0 1.66553,-1.19683 79.391218,76.40988 0 0 0 1.63195,-1.23817 79.391218,76.40988 0 0 0 1.59835,-1.27899 79.391218,76.40988 0 0 0 1.56217,-1.3193 79.391218,76.40988 0 0 0 1.52653,-1.35754 79.391218,76.40988 0 0 0 1.48879,-1.39578 79.391218,76.40988 0 0 0 1.45004,-1.43299 79.391218,76.40988 0 0 0 1.41077,-1.46916 79.391218,76.40988 0 0 0 1.37046,-1.50378 79.391218,76.40988 0 0 0 0.84543,-0.97824 l -1.11673,-1.25264 a 55.730171,53.672049 0 0 1 -0.28835,0.42323 55.730171,53.672049 0 0 1 -1.00666,1.37925 55.730171,53.672049 0 0 1 -1.05162,1.34824 55.730171,53.672049 0 0 1 -1.0945,1.3162 55.730171,53.672049 0 0 1 -1.13688,1.28209 55.730171,53.672049 0 0 1 -1.17823,1.24695 55.730171,53.672049 0 0 1 -1.21853,1.21078 55.730171,53.672049 0 0 1 -1.25729,1.17357 55.730171,53.672049 0 0 1 -1.29501,1.1343 55.730171,53.672049 0 0 1 -1.33118,1.09502 55.730171,53.672049 0 0 1 -1.36633,1.0542 55.730171,53.672049 0 0 1 -1.39991,1.01234 55.730171,53.672049 0 0 1 -1.43247,0.96997 55.730171,53.672049 0 0 1 -1.46348,0.92552 55.730171,53.672049 0 0 1 -1.49241,0.88109 55.730171,53.672049 0 0 1 -1.52084,0.83509 55.730171,53.672049 0 0 1 -1.54719,0.7891 55.730171,53.672049 0 0 1 -1.57252,0.74155 55.730171,53.672049 0 0 1 -1.59525,0.69402 55.730171,53.672049 0 0 1 -1.61747,0.64544 55.730171,53.672049 0 0 1 -1.63763,0.59583 55.730171,53.672049 0 0 1 -1.65674,0.54622 55.730171,53.672049 0 0 1 -1.67329,0.49557 55.730171,53.672049 0 0 1 -1.68878,0.44494 55.730171,53.672049 0 0 1 -1.70223,0.39377 55.730171,53.672049 0 0 1 -1.7141,0.3421 55.730171,53.672049 0 0 1 -1.72496,0.2899 55.730171,53.672049 0 0 1 -1.73323,0.2372 55.730171,53.672049 0 0 1 -1.73995,0.185 55.730171,53.672049 0 0 1 -1.745629,0.13229 55.730171,53.672049 0 0 1 -1.748732,0.0796 55.730171,53.672049 0 0 1 -1.75028,0.0264 55.730171,53.672049 0 0 1 -3.501596,-0.15607 56.397331,58.236656 0 0 1 -3.972883,1.37512 56.397331,58.236656 0 0 1 -5.071009,1.23144 56.397331,58.236656 0 0 1 -5.159375,0.74311 56.397331,58.236656 0 0 1 -5.203817,0.24856 56.397331,58.236656 0 0 1 -1.736844,-0.0279 56.397331,58.236656 0 0 1 -1.734778,-0.0827 56.397331,58.236656 0 0 1 -1.731677,-0.13798 56.397331,58.236656 0 0 1 -1.727028,-0.19275 56.397331,58.236656 0 0 1 -1.720307,-0.24805 56.397331,58.236656 0 0 1 -1.712039,-0.30231 56.397331,58.236656 0 0 1 -1.702221,-0.35656 56.397331,58.236656 0 0 1 -1.690854,-0.41083 56.397331,58.236656 0 0 1 -1.677935,-0.46405 56.397331,58.236656 0 0 1 -1.662946,-0.51729 56.397331,58.236656 0 0 1 -1.646928,-0.56999 56.397331,58.236656 0 0 1 -1.62936,-0.62218 56.397331,58.236656 0 0 1 -1.609719,-0.67386 56.397331,58.236656 0 0 1 -1.589051,-0.72451 56.397331,58.236656 0 0 1 -1.566828,-0.77463 56.397331,58.236656 0 0 1 -1.542542,-0.82424 56.397331,58.236656 0 0 1 -1.517221,-0.87281 56.397331,58.236656 0 0 1 -1.490864,-0.92036 56.397331,58.236656 0 0 1 -1.462444,-0.96738 56.397331,58.236656 0 0 1 -1.432986,-1.01389 56.397331,58.236656 0 0 1 -1.402498,-1.05885 56.397331,58.236656 0 0 1 -1.369428,-1.10278 56.397331,58.236656 0 0 1 -1.336352,-1.14566 56.397331,58.236656 0 0 1 -1.301729,-1.18804 56.397331,58.236656 0 0 1 -1.265555,-1.22835 56.397331,58.236656 0 0 1 -1.227833,-1.26814 56.397331,58.236656 0 0 1 -1.190107,-1.3069 56.397331,58.236656 0 0 1 -1.150318,-1.3441 56.397331,58.236656 0 0 1 -1.109493,-1.37977 56.397331,58.236656 0 0 1 -1.068152,-1.41438 56.397331,58.236656 0 0 1 -1.02526,-1.44797 56.397331,58.236656 0 0 1 -0.981336,-1.4795 56.397331,58.236656 0 0 1 -0.93741,-1.5105 56.397331,58.236656 0 0 1 -0.891419,-1.53944 56.397331,58.236656 0 0 1 -0.844909,-1.56683 56.397331,58.236656 0 0 1 -0.798401,-1.59319 56.397331,58.236656 0 0 1 -0.749825,-1.61747 56.397331,58.236656 0 0 1 -0.701766,-1.64072 56.397331,58.236656 0 0 1 -0.652673,-1.66243 56.397331,58.236656 0 0 1 -0.602031,-1.68207 56.397331,58.236656 0 0 1 -0.551904,-1.70067 56.397331,58.236656 0 0 1 -0.501262,-1.71773 56.397331,58.236656 0 0 1 -0.449584,-1.73219 56.397331,58.236656 0 0 1 -0.397909,-1.74615 56.397331,58.236656 0 0 1 -0.345198,-1.75752 56.397331,58.236656 0 0 1 -0.293006,-1.76836 56.397331,58.236656 0 0 1 -0.239779,-1.77612 56.397331,58.236656 0 0 1 -0.187068,-1.78336 56.397331,58.236656 0 0 1 -0.133326,-1.788 56.397331,58.236656 0 0 1 -0.0801,-1.79214 56.397331,58.236656 0 0 1 -0.02687,-1.79317 56.397331,58.236656 0 0 1 0.240295,-5.37331 56.397331,58.236656 0 0 1 0.719853,-5.32784 56.397331,58.236656 0 0 1 1.192691,-5.23586 56.397331,58.236656 0 0 1 1.655197,-5.10047 56.397331,58.236656 0 0 1 2.104264,-4.92063 56.397331,58.236656 0 0 1 2.534729,-4.69945 56.397331,58.236656 0 0 1 2.944006,-4.43797 56.397331,58.236656 0 0 1 3.327963,-4.13825 56.397331,58.236656 0 0 1 3.683495,-3.8039 56.397331,58.236656 0 0 1 4.007509,-3.43597 56.397331,58.236656 0 0 1 4.297928,-3.04012 56.397331,58.236656 0 0 1 4.550627,-2.61741 56.397331,58.236656 0 0 1 4.765598,-2.173 56.397331,58.236656 0 0 1 4.939234,-1.70945 56.397331,58.236656 0 0 1 5.07101,-1.23146 56.397331,58.236656 0 0 1 5.159374,-0.7431 56.397331,58.236656 0 0 1 5.203299,-0.24856 56.397331,58.236656 0 0 1 5.203817,0.24856 56.397331,58.236656 0 0 1 5.159375,0.7431 56.397331,58.236656 0 0 1 5.071009,1.23146 56.397331,58.236656 0 0 1 4.939234,1.70945 56.397331,58.236656 0 0 1 3.990454,1.81953 56.397331,58.236656 0 0 1 0.774628,0.35347 56.397331,58.236656 0 0 1 4.551145,2.61741 56.397331,58.236656 0 0 1 4.29742,3.04012 56.397331,58.236656 0 0 1 4.00751,3.43597 56.397331,58.236656 0 0 1 3.68349,3.8039 56.397331,58.236656 0 0 1 3.32796,4.13825 56.397331,58.236656 0 0 1 2.94401,4.43797 56.397331,58.236656 0 0 1 0.51676,0.95808 l 10.89753,-9.7131 18.06401,-16.10134 a 79.391218,76.40988 0 0 0 -0.54415,-0.93535 79.391218,76.40988 0 0 0 -3.46335,-4.98884 79.391218,76.40988 0 0 0 -3.8592,-4.71134 79.391218,76.40988 0 0 0 -4.23127,-4.40593 79.391218,76.40988 0 0 0 -4.57749,-4.07262 79.391218,76.40988 0 0 0 -4.89583,-3.7145 79.391218,76.40988 0 0 0 -5.18315,-3.333133 79.391218,76.40988 0 0 0 -5.43894,-2.931604 79.391218,76.40988 0 0 0 -5.66115,-2.511476 79.391218,76.40988 0 0 0 -5.84822,-2.076876 79.391218,76.40988 0 0 0 -6.00016,-1.628325 79.391218,76.40988 0 0 0 -6.113842,-1.170469 79.391218,76.40988 0 0 0 -6.190318,-0.705384 79.391218,76.40988 0 0 0 -6.229078,-0.235643 z" />
    <path
       id="path4482"
       style="fill:url(#linearGradient6134);fill-opacity:1;fill-rule:nonzero;stroke:none;stroke-width:0;stroke-miterlimit:4;stroke-dasharray:none;stroke-opacity:0.974554;paint-order:markers fill stroke"
       d="m 93.085194,129.07894 a 55.730171,53.672049 0 0 1 3.305225,-0.14728 55.730171,53.672049 0 0 1 1.455209,0.0646 56.397331,58.236656 0 0 0 -3.990454,-1.81953 56.397331,58.236656 0 0 0 -4.939234,-1.70945 56.397331,58.236656 0 0 0 -5.071009,-1.23146 56.397331,58.236656 0 0 0 -5.159375,-0.7431 56.397331,58.236656 0 0 0 -5.203817,-0.24856 56.397331,58.236656 0 0 0 -5.203299,0.24856 56.397331,58.236656 0 0 0 -5.159374,0.7431 56.397331,58.236656 0 0 0 -5.07101,1.23146 56.397331,58.236656 0 0 0 -4.939234,1.70945 56.397331,58.236656 0 0 0 -4.765598,2.173 56.397331,58.236656 0 0 0 -4.550627,2.61741 56.397331,58.236656 0 0 0 -4.297928,3.04012 56.397331,58.236656 0 0 0 -4.007509,3.43597 56.397331,58.236656 0 0 0 -3.683495,3.8039 56.397331,58.236656 0 0 0 -3.327963,4.13825 56.397331,58.236656 0 0 0 -2.944006,4.43797 56.397331,58.236656 0 0 0 -2.534729,4.69945 56.397331,58.236656 0 0 0 -2.104264,4.92063 56.397331,58.236656 0 0 0 -1.655197,5.10047 56.397331,58.236656 0 0 0 -1.192691,5.23586 56.397331,58.236656 0 0 0 -0.719853,5.32784 56.397331,58.236656 0 0 0 -0.240295,5.37331 56.397331,58.236656 0 0 0 0.02687,1.79317 56.397331,58.236656 0 0 0 0.0801,1.79214 56.397331,58.236656 0 0 0 0.133326,1.788 56.397331,58.236656 0 0 0 0.187068,1.78336 56.397331,58.236656 0 0 0 0.239779,1.77612 56.397331,58.236656 0 0 0 0.293006,1.76836 56.397331,58.236656 0 0 0 0.345198,1.75752 56.397331,58.236656 0 0 0 0.397909,1.74615 56.397331,58.236656 0 0 0 0.449584,1.73219 56.397331,58.236656 0 0 0 0.501262,1.71773 56.397331,58.236656 0 0 0 0.551904,1.70067 56.397331,58.236656 0 0 0 0.602031,1.68207 56.397331,58.236656 0 0 0 0.652673,1.66243 56.397331,58.236656 0 0 0 0.701766,1.64072 56.397331,58.236656 0 0 0 0.749825,1.61747 56.397331,58.236656 0 0 0 0.798401,1.59319 56.397331,58.236656 0 0 0 0.844909,1.56683 56.397331,58.236656 0 0 0 0.891419,1.53944 56.397331,58.236656 0 0 0 0.93741,1.5105 56.397331,58.236656 0 0 0 0.981336,1.4795 56.397331,58.236656 0 0 0 1.02526,1.44797 56.397331,58.236656 0 0 0 1.068152,1.41438 56.397331,58.236656 0 0 0 1.109493,1.37977 56.397331,58.236656 0 0 0 1.150318,1.3441 56.397331,58.236656 0 0 0 1.190107,1.3069 56.397331,58.236656 0 0 0 1.227833,1.26814 56.397331,58.236656 0 0 0 1.265555,1.22835 56.397331,58.236656 0 0 0 1.301729,1.18804 56.397331,58.236656 0 0 0 1.336352,1.14566 56.397331,58.236656 0 0 0 1.369428,1.10278 56.397331,58.236656 0 0 0 1.402498,1.05885 56.397331,58.236656 0 0 0 1.432986,1.01389 56.397331,58.236656 0 0 0 1.462444,0.96738 56.397331,58.236656 0 0 0 1.490864,0.92036 56.397331,58.236656 0 0 0 1.517221,0.87281 56.397331,58.236656 0 0 0 1.542542,0.82424 56.397331,58.236656 0 0 0 1.566828,0.77463 56.397331,58.236656 0 0 0 1.589051,0.72451 56.397331,58.236656 0 0 0 1.609719,0.67386 56.397331,58.236656 0 0 0 1.62936,0.62218 56.397331,58.236656 0 0 0 1.646928,0.56999 56.397331,58.236656 0 0 0 1.662946,0.51729 56.397331,58.236656 0 0 0 1.677935,0.46405 56.397331,58.236656 0 0 0 1.690854,0.41083 56.397331,58.236656 0 0 0 1.702221,0.35656 56.397331,58.236656 0 0 0 1.712039,0.30231 56.397331,58.236656 0 0 0 1.720307,0.24805 56.397331,58.236656 0 0 0 1.727028,0.19275 56.397331,58.236656 0 0 0 1.731677,0.13798 56.397331,58.236656 0 0 0 1.734778,0.0827 56.397331,58.236656 0 0 0 1.736844,0.0279 56.397331,58.236656 0 0 0 5.203817,-0.24856 56.397331,58.236656 0 0 0 5.159375,-0.74311 56.397331,58.236656 0 0 0 5.071009,-1.23144 56.397331,58.236656 0 0 0 3.972883,-1.37512 55.730171,53.672049 0 0 1 -1.640726,-0.0729 55.730171,53.672049 0 0 1 -5.098397,-0.68471 55.730171,53.672049 0 0 1 -5.011062,-1.13533 55.730171,53.672049 0 0 1 -4.880325,-1.5751 55.730171,53.672049 0 0 1 -4.709271,-2.00246 55.730171,53.672049 0 0 1 -4.496884,-2.41226 55.730171,53.672049 0 0 1 -4.246769,-2.80189 55.730171,53.672049 0 0 1 -3.960482,-3.16725 55.730171,53.672049 0 0 1 -3.640087,-3.50522 55.730171,53.672049 0 0 1 -3.288173,-3.81423 55.730171,53.672049 0 0 1 -2.909382,-4.08968 55.730171,53.672049 0 0 1 -2.504758,-4.331 55.730171,53.672049 0 0 1 -2.078942,-4.53512 55.730171,53.672049 0 0 1 -1.636075,-4.70049 55.730171,53.672049 0 0 1 -1.17874,-4.82606 55.730171,53.672049 0 0 1 -0.711067,-4.90978 55.730171,53.672049 0 0 1 -0.237713,-4.95215 55.730171,53.672049 0 0 1 0.237713,-4.95267 55.730171,53.672049 0 0 1 0.711067,-4.90978 55.730171,53.672049 0 0 1 1.17874,-4.82606 55.730171,53.672049 0 0 1 1.636075,-4.70049 55.730171,53.672049 0 0 1 1.520322,-3.31607 37.512929,37.512929 0 0 1 0.524,-3.08405 37.512929,37.512929 0 0 1 1.16427,-4.04214 37.512929,37.512929 0 0 1 1.610235,-3.88658 37.512929,37.512929 0 0 1 2.034503,-3.68195 37.512929,37.512929 0 0 1 2.434476,-3.43079 37.512929,37.512929 0 0 1 2.80293,-3.13676 37.512929,37.512929 0 0 1 3.13676,-2.80293 37.512929,37.512929 0 0 1 3.430796,-2.43448 37.512929,37.512929 0 0 1 3.681947,-2.03502 37.512929,37.512929 0 0 1 3.886584,-1.60972 37.512929,37.512929 0 0 1 4.042132,-1.16479 37.512929,37.512929 0 0 1 4.14755,-0.70435 37.512929,37.512929 0 0 1 4.20026,-0.23616 37.512929,37.512929 0 0 1 4.199742,0.23616 37.512929,37.512929 0 0 1 4.147553,0.70435 37.512929,37.512929 0 0 1 1.697569,0.48938 z" />
    <path
       id="path4480"
       style="fill:url(#linearGradient6136);fill-opacity:1;fill-rule:nonzero;stroke:none;stroke-width:0;stroke-miterlimit:4;stroke-dasharray:none;stroke-opacity:0.974554;paint-order:markers fill stroke"
       d="m 93.085194,129.07894 a 37.512929,37.512929 0 0 0 -1.697569,-0.48938 37.512929,37.512929 0 0 0 -4.147553,-0.70435 37.512929,37.512929 0 0 0 -4.199742,-0.23616 37.512929,37.512929 0 0 0 -4.20026,0.23616 37.512929,37.512929 0 0 0 -4.14755,0.70435 37.512929,37.512929 0 0 0 -4.042132,1.16479 37.512929,37.512929 0 0 0 -3.886584,1.60972 37.512929,37.512929 0 0 0 -3.681947,2.03502 37.512929,37.512929 0 0 0 -3.430796,2.43448 37.512929,37.512929 0 0 0 -3.13676,2.80293 37.512929,37.512929 0 0 0 -2.80293,3.13676 37.512929,37.512929 0 0 0 -2.434476,3.43079 37.512929,37.512929 0 0 0 -2.034503,3.68195 37.512929,37.512929 0 0 0 -1.610235,3.88658 37.512929,37.512929 0 0 0 -1.16427,4.04214 37.512929,37.512929 0 0 0 -0.524,3.08405 55.730171,53.672049 0 0 1 0.55862,-1.21905 55.730171,53.672049 0 0 1 2.504758,-4.331 55.730171,53.672049 0 0 1 2.909382,-4.08968 55.730171,53.672049 0 0 1 3.288173,-3.81423 55.730171,53.672049 0 0 1 3.640087,-3.50522 55.730171,53.672049 0 0 1 3.960482,-3.16724 55.730171,53.672049 0 0 1 4.246769,-2.80138 55.730171,53.672049 0 0 1 4.496884,-2.41278 55.730171,53.672049 0 0 1 4.709271,-2.00246 55.730171,53.672049 0 0 1 4.880325,-1.5751 55.730171,53.672049 0 0 1 5.011062,-1.13533 55.730171,53.672049 0 0 1 5.098397,-0.68471 55.730171,53.672049 0 0 1 1.837097,-0.0817 z" />
    <path
       id="path4470"
       style="fill:url(#linearGradient6138);fill-opacity:1;fill-rule:nonzero;stroke:none;stroke-width:0;stroke-miterlimit:4;stroke-dasharray:none;stroke-opacity:0.974554;paint-order:markers fill stroke"
       d="m 45.943887,159.89877 a 55.730171,53.672049 0 0 0 -1.520322,3.31607 55.730171,53.672049 0 0 0 -1.636075,4.70049 55.730171,53.672049 0 0 0 -1.17874,4.82606 55.730171,53.672049 0 0 0 -0.711067,4.90978 55.730171,53.672049 0 0 0 -0.237713,4.95267 55.730171,53.672049 0 0 0 0.237713,4.95215 55.730171,53.672049 0 0 0 0.711067,4.90978 55.730171,53.672049 0 0 0 1.17874,4.82606 55.730171,53.672049 0 0 0 1.636075,4.70049 55.730171,53.672049 0 0 0 2.078942,4.53512 55.730171,53.672049 0 0 0 2.504758,4.331 55.730171,53.672049 0 0 0 2.909382,4.08968 55.730171,53.672049 0 0 0 3.288173,3.81423 55.730171,53.672049 0 0 0 3.640087,3.50522 55.730171,53.672049 0 0 0 3.960482,3.16725 55.730171,53.672049 0 0 0 4.246769,2.80189 55.730171,53.672049 0 0 0 4.496884,2.41226 55.730171,53.672049 0 0 0 4.709271,2.00246 55.730171,53.672049 0 0 0 4.880325,1.5751 55.730171,53.672049 0 0 0 5.011062,1.13533 55.730171,53.672049 0 0 0 5.098397,0.68471 55.730171,53.672049 0 0 0 1.640726,0.0729 55.730171,53.672049 0 0 0 3.501596,0.15607 55.730171,53.672049 0 0 0 1.75028,-0.0264 55.730171,53.672049 0 0 0 1.748732,-0.0796 55.730171,53.672049 0 0 0 1.745629,-0.13229 55.730171,53.672049 0 0 0 1.73995,-0.185 55.730171,53.672049 0 0 0 1.73323,-0.2372 55.730171,53.672049 0 0 0 1.72496,-0.2899 55.730171,53.672049 0 0 0 1.7141,-0.3421 55.730171,53.672049 0 0 0 1.70223,-0.39377 55.730171,53.672049 0 0 0 1.68878,-0.44494 55.730171,53.672049 0 0 0 1.67329,-0.49557 55.730171,53.672049 0 0 0 1.65674,-0.54622 55.730171,53.672049 0 0 0 1.63763,-0.59583 55.730171,53.672049 0 0 0 1.61747,-0.64544 55.730171,53.672049 0 0 0 1.59525,-0.69402 55.730171,53.672049 0 0 0 1.57252,-0.74155 55.730171,53.672049 0 0 0 1.54719,-0.7891 55.730171,53.672049 0 0 0 1.52084,-0.83509 55.730171,53.672049 0 0 0 1.49241,-0.88109 55.730171,53.672049 0 0 0 1.46348,-0.92552 55.730171,53.672049 0 0 0 1.43247,-0.96997 55.730171,53.672049 0 0 0 1.39991,-1.01234 55.730171,53.672049 0 0 0 1.36633,-1.0542 55.730171,53.672049 0 0 0 1.33118,-1.09502 55.730171,53.672049 0 0 0 1.29501,-1.1343 55.730171,53.672049 0 0 0 1.25729,-1.17357 55.730171,53.672049 0 0 0 1.21853,-1.21078 55.730171,53.672049 0 0 0 1.17823,-1.24695 55.730171,53.672049 0 0 0 1.13688,-1.28209 55.730171,53.672049 0 0 0 1.0945,-1.3162 55.730171,53.672049 0 0 0 1.05162,-1.34824 55.730171,53.672049 0 0 0 1.00666,-1.37925 55.730171,53.672049 0 0 0 0.28835,-0.42323 l -14.69213,-16.48323 -11.86077,-13.30668 a 37.512929,37.512929 0 0 1 -1.41593,2.56109 37.512929,37.512929 0 0 1 -2.43448,3.43131 37.512929,37.512929 0 0 1 -2.80293,3.13624 37.512929,37.512929 0 0 1 -3.13676,2.80345 37.512929,37.512929 0 0 1 -3.4308,2.43448 37.512929,37.512929 0 0 1 -3.681952,2.0345 37.512929,37.512929 0 0 1 -3.886584,1.61024 37.512929,37.512929 0 0 1 -4.042129,1.16427 37.512929,37.512929 0 0 1 -4.147553,0.70486 37.512929,37.512929 0 0 1 -4.199742,0.23565 37.512929,37.512929 0 0 1 -4.20026,-0.23565 37.512929,37.512929 0 0 1 -4.14755,-0.70486 37.512929,37.512929 0 0 1 -4.042132,-1.16427 37.512929,37.512929 0 0 1 -3.886584,-1.61024 37.512929,37.512929 0 0 1 -3.681947,-2.0345 37.512929,37.512929 0 0 1 -3.430796,-2.43448 37.512929,37.512929 0 0 1 -3.13676,-2.80345 37.512929,37.512929 0 0 1 -2.80293,-3.13624 37.512929,37.512929 0 0 1 -2.434476,-3.43131 37.512929,37.512929 0 0 1 -2.034503,-3.68143 37.512929,37.512929 0 0 1 -1.610235,-3.88659 37.512929,37.512929 0 0 1 -1.16427,-4.04264 37.512929,37.512929 0 0 1 -0.704869,-4.14704 37.512929,37.512929 0 0 1 -0.235643,-4.20026 37.512929,37.512929 0 0 1 0.235643,-4.19974 37.512929,37.512929 0 0 1 0.180869,-1.0635 z" />
    <ellipse
       style="opacity:1;mix-blend-mode:normal;fill:#000000;fill-opacity:0.649175;fill-rule:nonzero;stroke:none;stroke-width:0;stroke-miterlimit:4;stroke-dasharray:none;stroke-opacity:0.974554;paint-order:markers fill stroke;filter:url(#filter9322)"
       id="path9240"
       cx="79.73764"
       cy="254.15504"
       rx="69.418571"
       ry="6.5191908"
       transform="matrix(0.87397721,0,0,0.31142884,7.4076304,169.81824)" />
  </g>
</svg>
