<?xml version="1.0" encoding="UTF-8" standalone="no"?>
<!-- Created with Inkscape (http://www.inkscape.org/) -->

<svg
   width="210mm"
   height="297mm"
   viewBox="0 0 210 297"
   version="1.1"
   id="svg9842"
   sodipodi:docname="charge.svg"
   inkscape:version="1.1.1 (1:1.1+202109281944+c3084ef5ed)"
   xmlns:inkscape="http://www.inkscape.org/namespaces/inkscape"
   xmlns:sodipodi="http://sodipodi.sourceforge.net/DTD/sodipodi-0.dtd"
   xmlns="http://www.w3.org/2000/svg"
   xmlns:svg="http://www.w3.org/2000/svg">
  <sodipodi:namedview
     id="namedview9844"
     pagecolor="#ffffff"
     bordercolor="#666666"
     borderopacity="1.0"
     inkscape:pageshadow="2"
     inkscape:pageopacity="0.0"
     inkscape:pagecheckerboard="0"
     inkscape:document-units="mm"
     showgrid="false"
     inkscape:zoom="0.4187009"
     inkscape:cx="402.43525"
     inkscape:cy="569.61903"
     inkscape:window-width="1294"
     inkscape:window-height="704"
     inkscape:window-x="0"
     inkscape:window-y="0"
     inkscape:window-maximized="1"
     inkscape:current-layer="layer1" />
  <defs
     id="defs9839" />
  <g
     inkscape:label="Layer 1"
     inkscape:groupmode="layer"
     id="layer1">
    <rect
       style="fill:#ccb523;fill-opacity:0.968627;fill-rule:evenodd;stroke-width:0.168245"
       id="rect31"
       width="50.85479"
       height="76.002258"
       x="122.1189"
       y="-166.6239"
       transform="matrix(0.99993273,-0.01159934,0.52134088,-0.85334851,0,0)" />
    <path
       id="path2250"
       style="fill:#ccb523;fill-opacity:0.968627;stroke-width:0.243294"
       d="M 65.701824,182.12309 12.212615,224.49998 55.872487,139.65672 H 118.97481 Z"
       sodipodi:nodetypes="ccccc" />
    <path
       id="path31"
       style="fill:#ccb523;fill-opacity:0.968627;fill-rule:evenodd;stroke-width:0.0350747"
       d="m 110.31933,67.91418 a 5.6617914,5.3507019 0 0 1 5.66176,5.350723 5.6617914,5.3507019 0 0 1 -5.66176,5.350657 5.6617914,5.3507019 0 0 1 -5.66179,-5.350657 5.6617914,5.3507019 0 0 1 5.66179,-5.350723 z m 0,2.558075 a 2.9549922,2.7926291 0 0 0 -2.95498,2.792648 2.9549922,2.7926291 0 0 0 2.95498,2.792582 2.9549922,2.7926291 0 0 0 2.95496,-2.792582 2.9549922,2.7926291 0 0 0 -2.95496,-2.792648 z" />
    <path
       id="path3466"
       style="fill:#ccb523;fill-opacity:0.968627;fill-rule:evenodd;stroke-width:0.0350747"
       d="m 87.55536,67.68064 a 5.6617914,5.3507019 0 0 1 5.661768,5.350723 5.6617914,5.3507019 0 0 1 -5.661768,5.350657 5.6617914,5.3507019 0 0 1 -5.661781,-5.350657 5.6617914,5.3507019 0 0 1 5.661781,-5.350723 z m 0,2.558075 a 2.9549922,2.7926291 0 0 0 -2.954982,2.792648 2.9549922,2.7926291 0 0 0 2.954982,2.79258 2.9549922,2.7926291 0 0 0 2.954969,-2.79258 2.9549922,2.7926291 0 0 0 -2.954969,-2.792648 z" />
    <rect
       style="fill:#ccb523;fill-opacity:0.968627;stroke-width:0.029378"
       id="rect5912"
       width="14.327257"
       height="2.4487298"
       x="91.609818"
       y="73.099586" />
    <path
       id="rect5912-5"
       style="fill:#ccb523;fill-opacity:0.968627;stroke-width:0.0181358"
       d="m 77.623895,73.466626 v 1.055754 a 2.2033864,1.9353982 0 0 1 0.08025,0.01031 1.7624418,1.1682276 0 0 0 -0.02161,0.179826 1.7624418,1.1682276 0 0 0 1.762424,1.168278 1.7624418,1.1682276 0 0 0 0.108088,-0.0026 2.2033864,1.9353982 0 0 1 0.0153,0.03717 h 3.51541 V 73.46661 Z" />
    <path
       id="rect5912-5-2"
       style="fill:#ccb523;fill-opacity:0.968627;stroke-width:0.0243461"
       d="m 121.3298,72.760606 v 1.405774 a 2.9821553,2.5770532 0 0 0 -0.10861,0.01372 2.3853624,1.5555377 0 0 1 0.0292,0.239445 2.3853624,1.5555377 0 0 1 -2.38534,1.555603 2.3853624,1.5555377 0 0 1 -0.14629,-0.0034 2.9821553,2.5770532 0 0 0 -0.0207,0.0495 h -4.7579 v -3.26063 z" />
    <path
       id="path6386"
       style="fill:#ccb523;fill-opacity:0.968627;stroke-width:0.0439013"
       d="m 81.270568,63.03335 a 12.574042,13.793446 45.542827 0 0 -3.095592,5.404439 12.574042,13.793446 45.542827 0 0 -0.470831,6.016347 l 3.282059,0.748717 a 9.7314052,10.675136 45.542843 0 1 0.03119,-6.116643 9.7314052,10.675136 45.542843 0 1 3.55004,-5.300768 z" />
    <path
       id="path7211"
       style="fill:#ccb523;fill-opacity:0.968627;stroke-width:0.0444922"
       d="m 89.341953,60.946156 a 12.338105,14.438159 71.179752 0 0 -0.203236,4.76e-4 12.338105,14.438159 71.179752 0 0 -4.460911,0.658391 12.338105,14.438159 71.179752 0 0 -3.407253,1.42831 2.8954826,2.8286153 22.320921 0 1 1.64979,2.283951 9.5488067,11.174097 71.179748 0 1 2.488468,-1.018909 9.5488067,11.174097 71.179748 0 1 4.006183,-0.496121 1.2316038,1.2138132 0 0 1 0.333845,-0.09776 l 1.269001,-1.782378 0.135019,-0.863822 a 12.338105,14.438159 71.179752 0 0 -1.607952,-0.109998 12.338105,14.438159 71.179752 0 0 -0.202954,-0.0021 z" />
    <path
       id="path7211-2"
       style="fill:#ccb523;fill-opacity:0.968627;stroke-width:0.0533954"
       d="m 94.632521,55.940389 a 13.977197,18.356288 58.547843 0 0 -6.723622,4.917251 13.977197,18.356288 58.547843 0 0 -2.365489,3.01523 1.6852827,3.2142937 78.853754 0 1 1.759777,-0.07561 1.006871,0.93680585 0 0 1 0.443681,-0.09616 1.006871,0.93680585 0 0 1 0.53883,0.14551 1.6852827,3.2142937 78.853754 0 1 0.09753,-0.02308 1.6852827,3.2142937 78.853754 0 1 1.365614,-0.119041 10.817346,14.206448 58.547843 0 1 0.888625,-1.020906 10.817346,14.206448 58.547843 0 1 5.548864,-3.96378 z" />
    <path
       id="path6386-9"
       style="fill:#ccb523;fill-opacity:0.968627;stroke-width:0.063437"
       d="m 108.53061,54.575924 a 29.65822,12.210447 0.889521 0 0 -3.69791,0.07129 29.65822,12.210447 0.889521 0 0 -10.200179,1.293173 l 0.995132,3.002796 a 22.953329,9.4500094 0.88952074 0 1 10.144567,-1.550345 22.953329,9.4500094 0.88952074 0 1 13.58709,1.105565 l -1.08978,-3.184614 a 29.65822,12.210447 0.889521 0 0 -9.73892,-0.737863 z" />
    <path
       id="path6386-9-1"
       style="fill:#ccb523;fill-opacity:0.968627;stroke-width:0.0562625"
       d="m 121.1072,65.504876 a 22.227677,12.815511 82.575502 0 0 -0.45007,-2.740378 22.227677,12.815511 82.575502 0 0 -2.3876,-7.450711 l -3.03756,1.035773 a 17.202626,9.9182846 82.575502 0 1 2.65075,7.384011 17.202626,9.9182846 82.575502 0 1 0.22432,10.203858 l 3.218,-1.12404 a 22.227677,12.815511 82.575502 0 0 -0.21784,-7.308513 z" />
    <rect
       style="fill:#ccb523;fill-opacity:0.968627;stroke-width:0.139136"
       id="rect5158-7"
       width="33.970291"
       height="7.2941899"
       x="112.90685"
       y="107.825"
       ry="3.0807896"
       rx="3.0807896" />
    <rect
       style="fill:#ccb523;fill-opacity:0.968627;stroke-width:0.139136"
       id="rect5322"
       width="33.970291"
       height="7.2941899"
       x="113.35481"
       y="94.45768"
       ry="2.8999805"
       rx="2.8999805" />
    <rect
       style="fill:#ccb523;fill-opacity:0.968627;stroke-width:0.139136"
       id="rect5324"
       width="33.970291"
       height="7.2941899"
       x="112.48486"
       y="120.86935"
       ry="2.7392612"
       rx="2.7392612" />
    <path
       id="rect5501"
       style="fill:#ccb523;fill-opacity:0.968627;stroke-width:0.245153"
       d="m 157.58942,94.212323 -10.2643,0.176557 26.0593,35.5232 25.93153,-35.499037 -10.2639,-0.1795 -15.6918,26.559067 z" />
  </g>
</svg>
