<?xml version="1.0" encoding="UTF-8" standalone="no"?>
<!-- Created with Inkscape (http://www.inkscape.org/) -->

<svg
   width="2560"
   height="1440"
   viewBox="0 0 2560 1440"
   version="1.1"
   id="svg5"
   inkscape:version="1.1.1 (1:1.1+202109281944+c3084ef5ed)"
   sodipodi:docname="drawingblue.svg"
   xmlns:inkscape="http://www.inkscape.org/namespaces/inkscape"
   xmlns:sodipodi="http://sodipodi.sourceforge.net/DTD/sodipodi-0.dtd"
   xmlns="http://www.w3.org/2000/svg"
   xmlns:svg="http://www.w3.org/2000/svg">
  <sodipodi:namedview
     id="namedview7"
     pagecolor="#ffffff"
     bordercolor="#666666"
     borderopacity="1.0"
     inkscape:pageshadow="2"
     inkscape:pageopacity="1"
     inkscape:pagecheckerboard="0"
     inkscape:document-units="px"
     showgrid="false"
     inkscape:zoom="0.36388287"
     inkscape:cx="1287.5022"
     inkscape:cy="633.44559"
     inkscape:window-width="1294"
     inkscape:window-height="704"
     inkscape:window-x="0"
     inkscape:window-y="0"
     inkscape:window-maximized="1"
     inkscape:current-layer="g2598" />
  <defs
     id="defs2">
    <inkscape:path-effect
       effect="copy_rotate"
       starting_point="496.69929,251.1414"
       origin="244.39583,251.1414"
       id="path-effect2600"
       is_visible="true"
       lpeversion="1"
       method="normal"
       num_copies="4"
       starting_angle="0"
       rotation_angle="90"
       gap="-0.01"
       copies_to_360="true"
       mirror_copies="false"
       split_items="false" />
  </defs>
  <g
     inkscape:label="Layer 1"
     inkscape:groupmode="layer"
     id="layer1">
    <g
       id="g2598"
       transform="matrix(1.3267875,1.0513985,-1.0323676,0.98801304,1264.2229,154.82977)"
       inkscape:path-effect="#path-effect2600"
       style="fill:#0000ff">
      <path
         id="rect31"
         style="fill:#0000ff;fill-rule:evenodd;stroke-width:0.999999"
         d="m 445.65625,-610.24023 c -140.94626,-8e-5 -276.11898,61.61048 -375.783203,171.27929 -99.664229,109.66884 -155.655853,258.41243 -155.65625,413.507815 V 169.47656 364.40625 559.33594 754.26562 949.19531 1144.125 H 82.464844 V 949.19531 754.26562 559.33594 364.40625 169.47656 -25.453125 h 1.703125 C 84.255616,-312.44155 273.58604,-556.94893 531.07227,-602.59961 c -28.23856,-5.07288 -56.80364,-7.62811 -85.41602,-7.64062 z m 334.86719,0 c -140.51479,-8e-5 -275.27368,61.61048 -374.63282,171.27929 -99.35911,109.66882 -155.17929,258.41242 -155.17968,413.507815 V 169.47656 364.40625 559.33594 754.26562 949.19531 1144.125 H 418.95898 V 949.19531 754.26562 559.33594 364.40625 169.47656 -25.453125 h 1.1836 c 0.0873,-286.988425 188.83724,-531.495805 445.53515,-577.146485 -28.15207,-5.07288 -56.62952,-7.62811 -85.15429,-7.64062 z m 338.32616,0 c -141.00052,-8e-5 -276.22511,61.61048 -375.92772,171.27929 -99.70262,109.6688 -155.71443,258.41242 -155.71485,413.507815 V 169.47656 364.40625 559.33594 754.26562 949.19531 1144.125 H 755.45312 V 949.19531 754.26562 559.33594 364.40625 169.47656 -25.453125 h 1.76954 c 0.0877,-286.988425 189.49082,-531.495805 447.07614,-577.146485 -28.2494,-5.07288 -56.8258,-7.62811 -85.4492,-7.64062 z m 85.4492,7.64062 c 257.5854,45.65068 446.9885,290.15806 447.0762,577.146485 h 170.0176 c -4e-4,-155.095395 -56.0142,-303.839015 -155.7168,-413.507815 -99.7026,-109.66881 -234.9272,-171.27937 -375.9278,-171.27929 -28.6234,0.0125 -57.1998,2.56774 -85.4492,7.64062 z M -635.7353,1427.2404 c -8e-5,140.9463 61.61048,276.119 171.27929,375.7832 109.66884,99.6642 258.41243,155.6558 413.507817,155.6562 H 143.98149 338.91118 533.84087 728.77055 923.70024 1118.6299 v -168.248 H 923.70024 728.77055 533.84087 338.91118 143.98149 -50.948193 v -1.7031 C -337.93662,1788.641 -582.444,1599.3106 -628.09468,1341.8244 c -5.07288,28.2385 -7.62811,56.8036 -7.64062,85.416 z m 0,-334.8672 c -8e-5,140.5148 61.61048,275.2737 171.27929,374.6328 109.66882,99.3591 258.41242,155.1793 413.507817,155.1797 H 143.98149 338.91118 533.84087 728.77055 923.70024 1118.6299 v -168.248 H 923.70024 728.77055 533.84087 338.91118 143.98149 -50.948193 v -1.1836 c -286.988427,-0.087 -531.495807,-188.8373 -577.146487,-445.5352 -5.07288,28.1521 -7.62811,56.6295 -7.64062,85.1543 z m 0,-338.32616 c -8e-5,141.00052 61.61048,276.22516 171.27929,375.92776 109.6688,99.7026 258.41242,155.7144 413.507817,155.7148 H 143.98149 338.91118 533.84087 728.77055 923.70024 1118.6299 V 1117.4435 H 923.70024 728.77055 533.84087 338.91118 143.98149 -50.948193 v -1.7695 C -337.93662,1115.5863 -582.444,926.18316 -628.09468,668.59784 c -5.07288,28.2494 -7.62811,56.8258 -7.64062,85.4492 z m 7.64062,-85.4492 c 45.65068,-257.5854 290.15806,-446.9885 577.146487,-447.0762 V 51.504041 c -155.095397,4e-4 -303.839017,56.014199 -413.507817,155.716799 -109.66881,99.7026 -171.27937,234.9272 -171.27929,375.9278 0.0125,28.6234 2.56774,57.1998 7.64062,85.4492 z M 1401.7453,2508.6319 c 140.9463,1e-4 276.119,-61.6104 375.7832,-171.2793 99.6643,-109.6688 155.6559,-258.4124 155.6563,-413.5078 V 1728.9151 1533.9855 1339.0558 1144.1261 949.1964 754.26671 h -168.2481 v 194.92969 194.9297 194.9297 194.9297 194.9296 194.9297 h -1.7031 c -0.088,286.9885 -189.4181,531.4958 -446.9043,577.1465 28.2386,5.0729 56.8036,7.6281 85.416,7.6406 z m -334.8672,0 c 140.5148,1e-4 275.2737,-61.6104 374.6329,-171.2793 99.3591,-109.6688 155.1792,-258.4124 155.1796,-413.5078 V 1728.9151 1533.9855 1339.0558 1144.1261 949.1964 754.26671 h -168.248 v 194.92969 194.9297 194.9297 194.9297 194.9296 194.9297 h -1.1836 c -0.087,286.9885 -188.8372,531.4958 -445.53516,577.1465 28.15206,5.0729 56.62956,7.6281 85.15426,7.6406 z m -338.32613,0 c 141.00052,1e-4 276.22513,-61.6104 375.92773,-171.2793 99.7026,-109.6688 155.7144,-258.4124 155.7148,-413.5078 V 1728.9151 1533.9855 1339.0558 1144.1261 949.1964 754.26671 h -168.246 v 194.92969 194.9297 194.9297 194.9297 194.9296 194.9297 h -1.7696 c -0.088,286.9885 -189.49081,531.4958 -447.07613,577.1465 28.2494,5.0729 56.8258,7.6281 85.4492,7.6406 z m -85.4492,-7.6406 c -257.5854,-45.6507 -446.9885,-290.158 -447.0762,-577.1465 H 26.008973 c 4e-4,155.0954 56.0142,303.839 155.716797,413.5078 99.7026,109.6689 234.9272,171.2794 375.9278,171.2793 28.6234,-0.012 57.1998,-2.5677 85.4492,-7.6406 z M 2483.1369,471.15132 C 2483.137,330.20506 2421.5264,195.03234 2311.8576,95.368115 2202.1887,-4.296114 2053.4452,-60.287738 1898.3498,-60.288135 H 1703.4201 1508.4904 1313.5607 1118.631 923.70133 728.77164 V 107.95991 h 194.92969 194.92967 194.9297 194.9297 194.9297 194.9297 v 1.70313 c 286.9884,0.0876 531.4958,189.41807 577.1465,446.9043 5.0728,-28.23856 7.6281,-56.80364 7.6406,-85.41602 z m 0,334.86719 C 2483.137,665.50372 2421.5264,530.74483 2311.8576,431.38569 2202.1888,332.02658 2053.4452,276.2064 1898.3498,276.20601 H 1703.4201 1508.4904 1313.5607 1118.631 923.70133 728.77164 v 168.24804 h 194.92969 194.92967 194.9297 194.9297 194.9297 194.9297 v 1.1836 c 286.9884,0.0873 531.4958,188.83724 577.1465,445.53515 5.0728,-28.15207 7.6281,-56.62952 7.6406,-85.15429 z m 0,338.32619 c 1e-4,-141.0006 -61.6105,-276.22514 -171.2793,-375.92775 C 2202.1888,668.71433 2053.4452,612.70252 1898.3498,612.7021 H 1703.4201 1508.4904 1313.5607 1118.631 923.70133 728.77164 v 168.24609 h 194.92969 194.92967 194.9297 194.9297 194.9297 194.9297 v 1.76954 c 286.9884,0.0877 531.4958,189.49082 577.1465,447.07617 5.0728,-28.2494 7.6281,-56.8258 7.6406,-85.4492 z m -7.6406,85.4492 c -45.6507,257.5854 -290.1581,446.9885 -577.1465,447.0762 v 170.0176 c 155.0954,-4e-4 303.839,-56.0142 413.5078,-155.7168 109.6688,-99.7026 171.2794,-234.9272 171.2793,-375.9278 -0.012,-28.6234 -2.5678,-57.1998 -7.6406,-85.4492 z"
         inkscape:original-d="m 445.65625,-610.24023 c -140.94626,-8e-5 -276.11898,61.61048 -375.783203,171.27929 -99.664229,109.66884 -155.655853,258.41243 -155.65625,413.507815 V 169.47656 364.40625 559.33594 754.26562 949.19531 1144.125 H 82.464844 V 949.19531 754.26562 559.33594 364.40625 169.47656 -25.453125 h 1.703125 C 84.255616,-312.44155 273.58604,-556.94893 531.07227,-602.59961 c -28.23856,-5.07288 -56.80364,-7.62811 -85.41602,-7.64062 z m 334.86719,0 c -140.51479,-8e-5 -275.27368,61.61048 -374.63282,171.27929 -99.35911,109.66882 -155.17929,258.41242 -155.17968,413.507815 V 169.47656 364.40625 559.33594 754.26562 949.19531 1144.125 H 418.95898 V 949.19531 754.26562 559.33594 364.40625 169.47656 -25.453125 h 1.1836 c 0.0873,-286.988425 188.83724,-531.495805 445.53515,-577.146485 -28.15207,-5.07288 -56.62952,-7.62811 -85.15429,-7.64062 z m 338.32616,0 c -141.00052,-8e-5 -276.22511,61.61048 -375.92772,171.27929 -99.70262,109.6688 -155.71443,258.41242 -155.71485,413.507815 V 169.47656 364.40625 559.33594 754.26562 949.19531 1144.125 H 755.45312 V 949.19531 754.26562 559.33594 364.40625 169.47656 -25.453125 h 1.76954 c 0.0877,-286.988425 189.49082,-531.495805 447.07614,-577.146485 -28.2494,-5.07288 -56.8258,-7.62811 -85.4492,-7.64062 z m 85.4492,7.64062 c 257.5854,45.65068 446.9885,290.15806 447.0762,577.146485 h 170.0176 c -4e-4,-155.095395 -56.0142,-303.839015 -155.7168,-413.507815 -99.7026,-109.66881 -234.9272,-171.27937 -375.9278,-171.27929 -28.6234,0.0125 -57.1998,2.56774 -85.4492,7.64062 z"
         transform="scale(0.26458333)" />
    </g>
  </g>
</svg>
