<?xml version="1.0" encoding="UTF-8" standalone="no"?>
<!-- Created with Inkscape (http://www.inkscape.org/) -->

<svg
   width="1920"
   height="1080"
   viewBox="0 0 1920 1080"
   version="1.1"
   id="svg5"
   inkscape:version="1.1.1 (1:1.1+202109281944+c3084ef5ed)"
   sodipodi:docname="drawing-1.svg"
   xmlns:inkscape="http://www.inkscape.org/namespaces/inkscape"
   xmlns:sodipodi="http://sodipodi.sourceforge.net/DTD/sodipodi-0.dtd"
   xmlns:xlink="http://www.w3.org/1999/xlink"
   xmlns="http://www.w3.org/2000/svg"
   xmlns:svg="http://www.w3.org/2000/svg">
  <sodipodi:namedview
     id="namedview7"
     pagecolor="#ffffff"
     bordercolor="#666666"
     borderopacity="1.0"
     inkscape:pageshadow="2"
     inkscape:pageopacity="0.0"
     inkscape:pagecheckerboard="0"
     inkscape:document-units="px"
     showgrid="false"
     inkscape:zoom="0.35740741"
     inkscape:cx="871.5544"
     inkscape:cy="684.09326"
     inkscape:window-width="1294"
     inkscape:window-height="704"
     inkscape:window-x="0"
     inkscape:window-y="0"
     inkscape:window-maximized="1"
     inkscape:current-layer="layer1"
     showborder="false" />
  <defs
     id="defs2">
    <radialGradient
       inkscape:collect="always"
       xlink:href="#linearGradient53844"
       id="radialGradient53846"
       cx="1175.5247"
       cy="-1031.4072"
       fx="1175.5247"
       fy="-1031.4072"
       r="120.01734"
       gradientTransform="matrix(-0.22166342,2.3451107,-2.2181665,-0.20966445,-1255.896,-2241.6004)"
       gradientUnits="userSpaceOnUse" />
    <linearGradient
       inkscape:collect="always"
       id="linearGradient53844">
      <stop
         style="stop-color:#ff93ea;stop-opacity:1;"
         offset="0"
         id="stop53840" />
      <stop
         style="stop-color:#e20e8e;stop-opacity:0.72549021"
         offset="0.31057051"
         id="stop6027" />
      <stop
         style="stop-color:#c0038c;stop-opacity:0"
         offset="1"
         id="stop53842" />
    </linearGradient>
    <linearGradient
       inkscape:collect="always"
       xlink:href="#linearGradient4260"
       id="linearGradient54344"
       x1="1299.4531"
       y1="-1043.3809"
       x2="1356.9354"
       y2="-1081.7363"
       gradientUnits="userSpaceOnUse"
       gradientTransform="matrix(2.3555634,0,0,2.1099026,-1997.6567,2846.426)" />
    <linearGradient
       inkscape:collect="always"
       id="linearGradient4260">
      <stop
         style="stop-color:#9a317a;stop-opacity:1"
         offset="0"
         id="stop4256" />
      <stop
         style="stop-color:#c65c7e;stop-opacity:0.55686277"
         offset="1"
         id="stop4424" />
      <stop
         style="stop-color:#f796fc;stop-opacity:0"
         offset="1"
         id="stop4258" />
    </linearGradient>
    <radialGradient
       inkscape:collect="always"
       xlink:href="#linearGradient45117"
       id="radialGradient45123"
       cx="1266.5219"
       cy="-1027.3898"
       fx="1266.5219"
       fy="-1027.3898"
       r="121.43208"
       gradientTransform="matrix(3.1981075,0,0,2.2487042,-3070.258,2989.2896)"
       gradientUnits="userSpaceOnUse" />
    <linearGradient
       inkscape:collect="always"
       id="linearGradient45117">
      <stop
         style="stop-color:#319a7e;stop-opacity:1"
         offset="0"
         id="stop45113" />
      <stop
         style="stop-color:#7300a1;stop-opacity:0.99607843"
         offset="0.52596939"
         id="stop45447" />
      <stop
         style="stop-color:#db49d0;stop-opacity:1"
         offset="0.82191622"
         id="stop45445" />
      <stop
         style="stop-color:#b9dcdd;stop-opacity:1"
         offset="1"
         id="stop45115" />
    </linearGradient>
  </defs>
  <g
     inkscape:label="Layer 1"
     inkscape:groupmode="layer"
     id="layer1">
    <path
       style="fill:url(#radialGradient53846);fill-opacity:1;fill-rule:evenodd;stroke:#000016;stroke-width:2.67651;stroke-miterlimit:4;stroke-dasharray:none;stroke-opacity:1;paint-order:markers fill stroke"
       d="m 796.50632,669.64792 c -41.6702,-1.4052 -106.1615,5.83345 -162.3638,32.07179 46.0665,147.60079 157.1891,244.47467 280.8689,244.85439 123.36188,-0.36792 234.27088,-96.74243 280.55578,-243.78932 -58.3869,31.06262 -106.7304,39.9009 -150.02,37.04715 -44.7041,-2.94677 -83.97318,-18.23694 -123.55658,-33.88799 -39.5838,-15.65125 -79.4894,-31.66774 -125.4843,-36.29602 -5.7495,-0.57874 5.953,0.20086 0,0 z"
       id="path5798"
       sodipodi:nodetypes="ccccsssc" />
    <path
       style="fill:url(#linearGradient54344);fill-opacity:1;fill-rule:evenodd;stroke:#000016;stroke-width:2.11543;stroke-miterlimit:4;stroke-dasharray:none;stroke-opacity:1;paint-order:markers fill stroke"
       d="m 915.00842,402.96804 a 303.50895,243.67297 0 0 0 -283.5732,158.57289 c 56.1357,-25.40997 103.4745,-33.70167 145.5646,-32.3064 6.1281,0.20255 12.146,0.61229 18.063,1.20074 47.3374,4.70952 88.2393,20.96695 128.5557,36.72898 40.3175,15.76161 80.04618,31.02106 125.05858,33.95424 43.6839,2.84753 92.4535,-5.93515 151.7867,-37.22396 A 303.50895,243.67297 0 0 0 915.00842,402.96804 Z"
       id="circle4182" />
    <path
       id="path5672"
       style="fill:url(#radialGradient45123);fill-opacity:1;fill-rule:evenodd;stroke:#000016;stroke-width:2.67651;stroke-miterlimit:4;stroke-dasharray:none;stroke-opacity:1;paint-order:markers fill stroke"
       d="m 915.00672,402.97754 a 303.49119,249.59539 0 0 0 -283.9005,163.1919 c 60.9405,32.76804 110.7371,41.89949 155.2601,39.00829 44.91,-2.9161 84.546,-18.08524 124.7711,-33.75422 40.2251,-15.66961 81.0343,-31.82936 128.26318,-36.51123 5.9042,-0.58507 11.9072,-0.99271 18.021,-1.19505 40.9989,-1.35414 86.9955,6.47508 141.2691,30.35053 A 303.49119,249.59539 0 0 0 915.00672,402.97754 Z m 148.28078,242.01638 c -9.2425,0 -18.2285,0.72665 -26.9925,2.08522 -46.74008,7.24435 -87.29258,32.31126 -127.51758,56.81081 -40.2255,24.50103 -80.1292,48.43995 -125.5582,53.05251 -43.1567,4.38227 -91.2479,-8.81484 -149.0767,-55.22423 A 303.42601,390.18605 0 0 0 915.01142,946.5741 303.42601,390.18605 0 0 0 1197.8536,694.90219 c -51.5294,-36.28231 -95.3903,-49.85278 -134.5661,-49.90827 z" />
    <ellipse
       style="opacity:0.227765;fill:#000000;fill-opacity:1;fill-rule:evenodd;stroke-width:1.00157;paint-order:markers fill stroke"
       id="path1655"
       cx="912.89917"
       cy="1000.6852"
       rx="225.84521"
       ry="20.137426" />
  </g>
</svg>
