<?xml version="1.0" encoding="UTF-8" standalone="no"?>
<!-- Created with Inkscape (http://www.inkscape.org/) -->

<svg
   width="210mm"
   height="297mm"
   viewBox="0 0 210 297"
   version="1.1"
   id="svg5"
   inkscape:version="1.1.1 (1:1.1+202109281944+c3084ef5ed)"
   sodipodi:docname="eyeball.svg"
   xmlns:inkscape="http://www.inkscape.org/namespaces/inkscape"
   xmlns:sodipodi="http://sodipodi.sourceforge.net/DTD/sodipodi-0.dtd"
   xmlns:xlink="http://www.w3.org/1999/xlink"
   xmlns="http://www.w3.org/2000/svg"
   xmlns:svg="http://www.w3.org/2000/svg">
  <sodipodi:namedview
     id="namedview7"
     pagecolor="#ffffff"
     bordercolor="#666666"
     borderopacity="1.0"
     inkscape:pageshadow="2"
     inkscape:pageopacity="1"
     inkscape:pagecheckerboard="0"
     inkscape:document-units="mm"
     showgrid="false"
     showborder="false"
     inkscape:zoom="0.29857056"
     inkscape:cx="808.85404"
     inkscape:cy="561.00642"
     inkscape:window-width="1294"
     inkscape:window-height="704"
     inkscape:window-x="0"
     inkscape:window-y="0"
     inkscape:window-maximized="1"
     inkscape:current-layer="layer1" />
  <defs
     id="defs2">
    <radialGradient
       inkscape:collect="always"
       xlink:href="#linearGradient5205-7-9"
       id="radialGradient5207"
       cx="1206.1624"
       cy="432.00137"
       fx="1206.1624"
       fy="432.00137"
       r="140.77051"
       gradientTransform="matrix(1,0,0,1.0040236,-12.045594,62.537259)"
       gradientUnits="userSpaceOnUse" />
    <linearGradient
       inkscape:collect="always"
       id="linearGradient5205-7-9">
      <stop
         style="stop-color:#0cc4e1;stop-opacity:0.98431373"
         offset="0"
         id="stop6378" />
      <stop
         style="stop-color:#005fd4;stop-opacity:1"
         offset="0.50459367"
         id="stop6380" />
      <stop
         style="stop-color:#005ccd;stop-opacity:1;"
         offset="0.50459367"
         id="stop7286" />
      <stop
         style="stop-color:#00488d;stop-opacity:1"
         offset="0.69661552"
         id="stop6382" />
      <stop
         style="stop-color:#002b5d;stop-opacity:1"
         offset="1"
         id="stop6384" />
    </linearGradient>
    <radialGradient
       inkscape:collect="always"
       xlink:href="#linearGradient5205-7-9"
       id="radialGradient14462"
       gradientUnits="userSpaceOnUse"
       gradientTransform="matrix(1,0,0,1.0040236,-12.045594,62.537259)"
       cx="1206.1624"
       cy="432.00137"
       fx="1206.1624"
       fy="432.00137"
       r="140.77051" />
    <linearGradient
       inkscape:collect="always"
       xlink:href="#linearGradient5205-7-9"
       id="linearGradient8571"
       x1="994.75586"
       y1="489.6123"
       x2="1275.5449"
       y2="489.6123"
       gradientUnits="userSpaceOnUse"
       gradientTransform="translate(-9.4788217,64.518584)" />
    <linearGradient
       inkscape:collect="always"
       xlink:href="#linearGradient5205-7-9"
       id="linearGradient8579"
       x1="994.11719"
       y1="556.7959"
       x2="1275.6582"
       y2="556.7959"
       gradientUnits="userSpaceOnUse"
       gradientTransform="translate(-9.4788217,64.518584)" />
    <filter
       style="color-interpolation-filters:sRGB"
       inkscape:label="Greyscale"
       id="filter8583"
       x="0"
       y="0"
       width="1"
       height="1">
      <feColorMatrix
         values="0.21 0.72 0.072 0 0 0.21 0.72 0.072 0 0 0.21 0.72 0.072 0 0 0 0 0 1 0 "
         id="feColorMatrix8581" />
    </filter>
    <radialGradient
       inkscape:collect="always"
       xlink:href="#linearGradient11087"
       id="radialGradient12134"
       cx="1134.8885"
       cy="539.91248"
       fx="1134.8885"
       fy="539.91248"
       r="37.698929"
       gradientUnits="userSpaceOnUse"
       gradientTransform="translate(-9.4788217,64.518584)" />
    <linearGradient
       inkscape:collect="always"
       id="linearGradient11087">
      <stop
         style="stop-color:#ce0418;stop-opacity:1"
         offset="0"
         id="stop11077" />
      <stop
         style="stop-color:#920419;stop-opacity:0.96078432"
         offset="0.50459367"
         id="stop11079" />
      <stop
         style="stop-color:#d60011;stop-opacity:1"
         offset="0.50459367"
         id="stop11081" />
      <stop
         style="stop-color:#ca000c;stop-opacity:1"
         offset="1"
         id="stop11083" />
      <stop
         style="stop-color:#2d0106;stop-opacity:1"
         offset="1"
         id="stop11085" />
    </linearGradient>
    <radialGradient
       inkscape:collect="always"
       xlink:href="#linearGradient11087"
       id="radialGradient12250"
       gradientUnits="userSpaceOnUse"
       cx="1134.8885"
       cy="539.91248"
       fx="1134.8885"
       fy="539.91248"
       r="37.698929"
       gradientTransform="matrix(0.78238077,0,0,0.78238077,-283.48393,-1547.8269)" />
    <radialGradient
       inkscape:collect="always"
       xlink:href="#linearGradient12464"
       id="radialGradient12466"
       cx="1174.1492"
       cy="540.25507"
       fx="1174.1492"
       fy="540.25507"
       r="121.24112"
       gradientUnits="userSpaceOnUse"
       gradientTransform="matrix(-0.31514033,-0.71406044,0.91486401,-0.4037621,1032.6014,1545.2009)" />
    <linearGradient
       inkscape:collect="always"
       id="linearGradient12464">
      <stop
         style="stop-color:#eadcdc;stop-opacity:1"
         offset="0"
         id="stop12460" />
      <stop
         style="stop-color:#a3a3a3;stop-opacity:0"
         offset="1"
         id="stop12462" />
    </linearGradient>
  </defs>
  <g
     inkscape:label="Layer 1"
     inkscape:groupmode="layer"
     id="layer1">
    <g
       id="g18791"
       transform="matrix(0.69175009,0,0,0.69175009,-645.18606,-264.21845)">
      <g
         id="g17560"
         transform="translate(-3.9793167)">
        <circle
           style="opacity:0.240404;fill:#000000;fill-opacity:1;fill-rule:evenodd;stroke-width:1.29927;paint-order:markers fill stroke"
           id="path13368"
           cx="1122.842"
           cy="553.00708"
           r="128.22423" />
        <path
           style="mix-blend-mode:normal;fill:url(#radialGradient5207);fill-opacity:1;fill-rule:evenodd;stroke-width:1.07745;paint-order:markers fill stroke"
           d="m 1263.6126,564.56155 a 217.86768,217.86768 0 0 1 -85.4434,45.05859 55.837673,55.837673 0 0 1 -55.3261,50.64844 55.837673,55.837673 0 0 1 -55.3086,-50.46289 217.86768,217.86768 0 0 1 -85.4629,-44.66016 141.33652,141.33652 0 0 0 140.75,133.13086 141.33652,141.33652 0 0 0 140.791,-133.71484 z"
           id="path8253" />
        <path
           style="mix-blend-mode:normal;fill:url(#radialGradient14462);fill-opacity:1;fill-rule:evenodd;stroke-width:1.07745;paint-order:markers fill stroke"
           d="m 1122.8216,415.60256 a 141.33652,141.33652 0 0 0 -140.11133,124.19141 217.86768,217.86768 0 0 0 87.54293,46.26367 55.837673,55.837673 0 0 1 52.5899,-37.46484 55.837673,55.837673 0 0 1 53.0879,38.58398 217.86768,217.86768 0 0 0 87.5683,-43.78515 141.33652,141.33652 0 0 0 -140.6777,-127.78907 z"
           id="path2968" />
        <path
           id="path2988"
           style="fill:url(#linearGradient8571);fill-opacity:1;fill-rule:evenodd;stroke-width:1.07745;paint-order:markers fill stroke"
           d="m 988.92548,520.96389 a 141.33652,141.33652 0 0 0 -3.64844,18.83008 217.86768,217.86768 0 0 0 76.79496,43.04492 217.86768,217.86768 0 0 0 4.2246,1.32617 217.86768,217.86768 0 0 0 6.5664,2.0586 55.837673,55.837673 0 0 1 4.5586,-9.85547 55.837673,55.837673 0 0 1 0.2558,-0.42578 55.837673,55.837673 0 0 1 6.3887,-8.72656 217.86768,217.86768 0 0 1 -0.061,-0.0156 55.837673,55.837673 0 0 1 41.4043,-18.60742 55.837673,55.837673 0 0 1 42.9785,20.39453 55.837673,55.837673 0 0 1 4.8183,6.85742 55.837673,55.837673 0 0 1 1.3145,2.27735 55.837673,55.837673 0 0 1 4.0098,9.17578 217.86768,217.86768 0 0 0 5.5527,-1.61719 217.86768,217.86768 0 0 0 6.3945,-1.86523 217.86768,217.86768 0 0 0 75.5879,-40.42383 141.33652,141.33652 0 0 0 -3.2519,-19.26563 217.86768,217.86768 0 0 1 -76.4375,39.23828 73.636429,73.636429 0 0 0 -60.9668,-32.57031 73.636429,73.636429 0 0 0 -60.0918,31.50781 217.86768,217.86768 0 0 1 -76.39262,-41.33789 z" />
        <path
           id="path3047"
           style="fill:url(#linearGradient8579);fill-opacity:1;fill-rule:evenodd;stroke-width:1.07745;paint-order:markers fill stroke;filter:url(#filter8583)"
           d="m 1266.1794,564.56155 a 217.86768,217.86768 0 0 1 -67.1484,39.26953 217.86768,217.86768 0 0 1 -0.024,0.008 217.86768,217.86768 0 0 1 -18.2715,5.78125 55.837673,55.837673 0 0 1 -1.3203,7.84766 55.837673,55.837673 0 0 1 -1.0586,3.38672 55.837673,55.837673 0 0 1 -1.3632,4.19336 55.837673,55.837673 0 0 1 -1.7637,3.71875 55.837673,55.837673 0 0 1 -49.8203,31.50195 55.837673,55.837673 0 0 1 -49.8262,-31.50781 55.837673,55.837673 0 0 1 -1.6895,-3.53321 55.837673,55.837673 0 0 1 -1.4414,-4.39843 55.837673,55.837673 0 0 1 -1.0039,-3.17188 55.837673,55.837673 0 0 1 -1.3476,-7.85156 217.86768,217.86768 0 0 1 -18.3008,-5.72266 217.86768,217.86768 0 0 1 -67.16013,-38.9375 141.33652,141.33652 0 0 0 3.51758,23.08789 217.86768,217.86768 0 0 0 66.79105,37.21289 73.636429,73.636429 0 0 0 70.4629,52.6211 73.636429,73.636429 0 0 0 70.6425,-52.91797 217.86768,217.86768 0 0 0 66.7266,-37.56836 141.33652,141.33652 0 0 0 3.4004,-23.01953 z" />
        <circle
           style="opacity:0.95029;fill:url(#radialGradient12134);fill-opacity:1;fill-rule:evenodd;stroke-width:1.32177;paint-order:markers fill stroke"
           id="path3110"
           cx="1125.4097"
           cy="604.43103"
           r="37.698929" />
        <circle
           style="opacity:0.95029;fill:url(#radialGradient12250);fill-opacity:1;fill-rule:evenodd;stroke-width:1.03413;paint-order:markers fill stroke"
           id="circle12248"
           cx="604.43103"
           cy="-1125.4097"
           r="29.494917"
           transform="rotate(90)" />
        <circle
           style="opacity:0.95029;fill:url(#radialGradient12466);fill-opacity:1;fill-rule:evenodd;stroke-width:1.03703;paint-order:markers fill stroke"
           id="path12340"
           cx="1121.9034"
           cy="541.93671"
           r="121.24112" />
      </g>
      <g
         id="g18341"
         style="opacity:0.296059"
         transform="matrix(0.84177404,0,0,0.66580263,176.16322,234.65794)">
        <ellipse
           style="fill:#000000;fill-opacity:0.964461;fill-rule:evenodd;stroke-width:0.444914;paint-order:markers fill stroke"
           id="path4182"
           cx="1120.147"
           cy="721.55298"
           rx="142.83113"
           ry="18.4326" />
      </g>
    </g>
  </g>
</svg>
