<?xml version="1.0" encoding="UTF-8" standalone="no"?>
<!-- Created with Inkscape (http://www.inkscape.org/) -->

<svg
   width="1920"
   height="1080"
   viewBox="0 0 1920 1080"
   version="1.1"
   id="svg5"
   inkscape:version="1.1.1 (1:1.1+202109281944+c3084ef5ed)"
   sodipodi:docname="nbfgvfc                           ccccccccccccccccccccc.svg"
   inkscape:export-filename="/home/parthasarathy/Videos/login.png"
   inkscape:export-xdpi="96"
   inkscape:export-ydpi="96"
   xmlns:inkscape="http://www.inkscape.org/namespaces/inkscape"
   xmlns:sodipodi="http://sodipodi.sourceforge.net/DTD/sodipodi-0.dtd"
   xmlns="http://www.w3.org/2000/svg"
   xmlns:svg="http://www.w3.org/2000/svg">
  <sodipodi:namedview
     id="namedview7"
     pagecolor="#ffffff"
     bordercolor="#666666"
     borderopacity="1.0"
     inkscape:pageshadow="2"
     inkscape:pageopacity="0.0"
     inkscape:pagecheckerboard="0"
     inkscape:document-units="px"
     showgrid="false"
     showborder="false"
     inkscape:zoom="0.35740741"
     inkscape:cx="1003.057"
     inkscape:cy="538.60104"
     inkscape:window-width="1294"
     inkscape:window-height="704"
     inkscape:window-x="0"
     inkscape:window-y="0"
     inkscape:window-maximized="1"
     inkscape:current-layer="layer1" />
  <defs
     id="defs2" />
  <g
     inkscape:label="Layer 1"
     inkscape:groupmode="layer"
     id="layer1">
    <path
       style="color:#000000;fill:#0066ff;fill-opacity:1;fill-rule:evenodd;stroke-width:3.57674;-inkscape-stroke:none;paint-order:markers fill stroke"
       d="m 932.36682,711.62647 c -43.82998,-36.66914 -67.93556,-91.68135 -65.18801,-148.76145 2.74756,-57.08014 32.03,-109.52353 79.17924,-141.81343 l -29.73418,-43.41976 c -60.70105,41.57072 -98.4743,109.21897 -102.01152,182.70526 -3.53723,73.4862 27.56336,144.44452 83.99107,191.65325 z"
       id="circle3748" />
    <path
       style="color:#000000;fill:#f08080;fill-opacity:1;fill-rule:evenodd;stroke-width:3.57674;-inkscape-stroke:none;paint-order:markers fill stroke"
       d="M 979.72256,832.0108 C 854.72557,798.51796 771.24989,681.13907 780.64344,552.07403 790.03698,423.00902 889.62999,318.9529 1018.1593,303.91204 l -2.898,-24.75867 C 875.00931,295.56605 766.02952,409.42804 755.77926,550.26455 745.52899,691.10107 836.87388,819.5394 973.27136,856.08697 Z"
       id="circle4362" />
    <path
       style="color:#000000;fill:#ff69b4;fill-opacity:1;fill-rule:evenodd;stroke-width:3.57674;-inkscape-stroke:none;paint-order:markers fill stroke"
       d="M 960.53692,801.58611 C 864.74773,764.5322 801.99342,672.05585 802.94619,569.35411 803.89896,466.65222 868.36144,375.35017 964.8216,340.0797 l -5.7125,-15.60461 c -102.90876,37.6284 -171.76059,135.15551 -172.77704,244.72315 -1.01645,109.56779 66.01507,208.35422 168.20809,247.88531 z"
       id="circle4466" />
    <path
       style="color:#000000;fill:#66cdaa;fill-opacity:0.996078;fill-rule:evenodd;stroke-width:3.57674;-inkscape-stroke:none;paint-order:markers fill stroke"
       d="m 1105.4097,381.99551 c -84.2118,-24.83358 -174.74392,8.86434 -222.22851,82.71248 -47.48457,73.84814 -40.57084,170.20077 16.96932,236.51426 l 4.18391,-3.63059 C 848.39047,633.11793 841.67948,539.50059 887.84676,467.7011 934.01407,395.90163 1021.9721,363.16755 1103.8477,387.31218 Z"
       id="circle4468" />
    <path
       style="color:#000000;fill:#66cdaa;fill-opacity:0.996078;fill-rule:evenodd;stroke-width:3.57674;-inkscape-stroke:none;paint-order:markers fill stroke"
       d="m 1069.6896,341.64385 0.9753,-11.03544 c -90.66072,-7.96415 -178.15282,35.63937 -226.37666,112.82265 -48.22379,77.18326 -49.05443,174.93383 -2.14501,252.92289 l 9.49231,-5.7085 c -44.77292,-74.4371 -43.9773,-167.67257 2.05015,-241.34059 46.02748,-73.66796 129.47236,-115.2624 216.00391,-107.66101 z"
       id="circle4472" />
    <path
       style="color:#000000;fill:#0066ff;fill-opacity:1;fill-rule:evenodd;stroke-width:3.57674;-inkscape-stroke:none;paint-order:markers fill stroke"
       d="m 1166.6034,431.65345 c 43.8299,36.66914 67.9423,91.68315 65.1947,148.76312 -2.7475,57.08018 -32.03,109.5237 -79.1792,141.81348 l 29.7342,43.41981 c 60.701,-41.57068 98.4742,-109.21896 102.0115,-182.70515 3.5372,-73.48629 -27.5634,-144.44465 -83.9911,-191.65337 z"
       id="path7867" />
    <path
       style="color:#000000;fill:#f08080;fill-opacity:1;fill-rule:evenodd;stroke-width:3.57674;-inkscape-stroke:none;paint-order:markers fill stroke"
       d="m 1119.2544,311.27082 c 124.997,33.49285 208.4726,150.87184 199.0791,279.93685 -9.3935,129.065 -108.9866,233.12111 -237.5159,248.16194 l 2.898,24.75867 c 140.252,-16.41264 249.2251,-130.27634 259.4753,-271.1129 10.2503,-140.83655 -81.0879,-269.27305 -217.4853,-305.82065 z"
       id="circle7869" />
    <path
       style="color:#000000;fill:#ff69b4;fill-opacity:1;fill-rule:evenodd;stroke-width:3.57674;-inkscape-stroke:none;paint-order:markers fill stroke"
       d="m 1138.44,341.69554 c 95.7892,37.05395 158.5435,129.53033 157.5907,232.2321 -0.9527,102.70177 -65.4152,194.00393 -161.8754,229.27438 l 5.7057,15.6028 C 1242.7698,781.1764 1311.6284,683.6511 1312.6449,574.08349 1313.6613,464.51579 1246.623,365.72737 1144.43,326.19628 Z"
       id="circle7871" />
    <path
       style="color:#000000;fill:#66cdaa;fill-opacity:0.996078;fill-rule:evenodd;stroke-width:3.57674;-inkscape-stroke:none;paint-order:markers fill stroke"
       d="m 993.56045,761.28434 c 84.21185,24.83356 174.74395,-8.86421 222.22855,-82.71244 47.4846,-73.84813 40.5776,-170.19904 -16.9626,-236.51239 l -4.1839,3.6305 c 55.9439,64.47379 62.655,158.09107 16.4877,229.89056 -46.1673,71.79958 -134.1254,104.53358 -216.00098,80.38895 z"
       id="path7873" />
    <path
       style="color:#000000;fill:#66cdaa;fill-opacity:0.996078;fill-rule:evenodd;stroke-width:3.57674;-inkscape-stroke:none;paint-order:markers fill stroke"
       d="m 1029.2805,801.63594 -0.9685,11.03737 c 90.6607,7.96404 178.1529,-35.63933 226.3767,-112.82264 48.2238,-77.18339 49.0476,-174.93565 2.1383,-252.92477 l -9.4924,5.70854 c 44.7729,74.43712 43.9841,167.67447 -2.0434,241.34243 -46.0275,73.66796 -129.4791,115.26056 -216.0107,107.65907 z"
       id="circle7875" />
    <ellipse
       style="fill:#4a46b4;fill-opacity:1;fill-rule:evenodd;stroke-width:0.277605;paint-order:markers fill stroke"
       id="circle11387"
       cy="-1161.6786"
       cx="280.53488"
       rx="44.297001"
       ry="44.297142"
       transform="rotate(105)" />
    <path
       style="color:#000000;fill:#0066ff;fill-opacity:1;fill-rule:evenodd;stroke-width:3.57674;-inkscape-stroke:none;paint-order:markers fill stroke"
       d="m 726.83271,691.51223 -0.61252,-1.67949 C 689.22104,588.63692 701.72483,476.02664 760.02268,385.41258 818.32053,294.79859 915.61875,236.73855 1023.048,228.46285 l 1.7882,-0.13831 -4.3174,-56.03619 -1.7782,0.13827 C 893.82168,182.04969 780.55321,249.6326 712.76439,354.99873 644.97561,460.36479 630.41657,591.46157 673.43925,709.13227 l 0.61256,1.67948 z m -4.49021,-2.16843 -46.06295,16.8494 C 634.39657,590.00875 648.9085,460.85635 715.76772,356.93512 782.62715,253.0136 894.1397,186.27898 1017.234,176.23517 l 3.764,48.90321 C 913.17232,234.00807 815.59402,292.43192 757.01935,383.47623 698.4432,474.52285 685.71602,587.53894 722.3425,689.3438 Z"
       id="path11474" />
    <path
       style="color:#000000;fill:#4682b4;fill-opacity:1;fill-rule:evenodd;stroke-width:6.34542;stroke-miterlimit:4;stroke-dasharray:none;paint-order:markers fill stroke"
       d="m 705.32024,918.33932 -1.26459,-1.26459 C 538.25909,751.27826 513.59666,491.33034 645.26308,297.31759 776.92954,103.30491 1027.6115,30.21423 1242.9199,123.0541 l 1.64,0.70159 11.2823,-26.170651 -1.64,-0.71123 C 1026.5006,-1.3099138 760.92596,76.133089 621.68079,281.31317 482.43562,486.49316 508.56192,761.88931 683.90154,937.22904 l 1.26459,1.26459 z m -5.00397,-0.0543 -15.0958,15.09576 C 512.22736,759.18177 486.67938,486.59809 624.63484,283.31844 762.59,80.039199 1025.3404,3.1028212 1251.1149,99.526209 l -8.4568,19.600821 C 1026.1684,26.706002 774.58752,100.39774 642.30919,295.3121 510.03039,490.22704 534.47152,751.23612 700.31627,918.28499 Z"
       id="circle11476" />
    <path
       style="color:#000000;fill:#ff8c00;fill-opacity:1;fill-rule:evenodd;stroke-width:3.57674;-inkscape-stroke:none;paint-order:markers fill stroke"
       d="m 704.63854,851.72223 -1.12131,-1.39791 C 587.43455,706.21533 572.82358,505.34482 666.82991,345.95411 760.83635,186.56341 943.70323,102.15693 1125.9869,134.02027 l 1.7635,0.31109 3.4726,-19.90209 -1.7635,-0.30145 C 938.95656,80.827719 747.67753,169.11137 649.43231,335.68911 c -98.2453,166.5778 -82.9601,376.70325 38.35695,527.3103 l 1.12144,1.38794 z m -4.97921,-0.58284 -10.15118,8.17528 C 570.14973,709.95903 555.32486,502.29532 652.51461,337.50718 749.70479,172.71832 938.61768,85.215369 1127.0785,117.408 l -2.2475,12.8581 C 941.67879,99.000889 758.20032,183.98874 663.74753,344.13629 c -94.45129,160.14504 -80.06273,361.84497 35.9118,507.0031 z"
       id="circle11478" />
    <path
       style="color:#000000;fill:#0066ff;fill-opacity:1;fill-rule:evenodd;stroke:none;stroke-width:3.57674;-inkscape-stroke:none;paint-order:markers fill stroke"
       d="M 1303.3031,330.1964 C 1196.0811,217.48225 1027.3338,188.98375 889.04326,260.2351 750.75276,331.4865 676.00695,485.43784 705.55239,638.1732 l 5.43863,-1.05227 C 681.90818,486.77692 755.45197,335.29584 891.57733,265.16002 1027.7027,195.02423 1193.7438,223.06539 1299.2871,334.01477 Z"
       id="path11480" />
    <path
       style="color:#000000;fill:#66cdaa;fill-opacity:0.996078;fill-rule:evenodd;stroke:none;stroke-width:3.57674;-inkscape-stroke:none;paint-order:markers fill stroke"
       d="m 1288.1826,231.01174 6.3574,-9.07428 C 1162.9961,129.75998 990.81666,119.20433 848.99693,194.6208 707.17724,270.03727 619.66329,418.68726 622.54043,579.28678 l 11.07482,-0.19763 c -2.80284,-156.45511 82.42326,-301.22234 220.58325,-374.69264 138.15996,-73.47031 305.8348,-63.18355 433.9841,26.61523 z"
       id="circle11482" />
    <path
       style="color:#000000;fill:#0066ff;fill-opacity:1;fill-rule:evenodd;stroke-width:3.57674;-inkscape-stroke:none;paint-order:markers fill stroke"
       d="m 1372.143,451.76287 0.6125,1.6795 c 36.9992,101.19587 24.4954,213.81615 -33.8025,304.43013 -58.2978,90.61399 -155.596,148.67407 -263.0253,156.9498 l -1.7882,0.13823 4.3174,56.03629 1.7783,-0.1384 c 124.9189,-9.62298 238.1923,-77.21089 305.9811,-182.577 67.7888,-105.3661 82.3428,-236.45799 39.3202,-354.12854 l -0.6126,-1.67959 z m 4.4902,2.16854 46.063,-16.83946 c 41.883,116.18435 27.376,245.33184 -39.4833,349.25313 -66.8593,103.92151 -178.3769,170.66098 -301.4711,180.70484 l -3.7641,-48.90332 c 107.8257,-8.86968 205.404,-67.29345 263.9787,-158.33774 58.5762,-91.04679 71.3034,-204.07238 34.6768,-305.87745 z"
       id="path11484" />
    <path
       style="color:#000000;fill:#0066ff;fill-opacity:1;fill-rule:evenodd;stroke-width:3.57674;-inkscape-stroke:none;paint-order:markers fill stroke"
       d="m 1393.6555,224.94571 1.2646,1.26457 c 165.7965,165.79651 190.4541,425.73961 58.7876,619.75233 -131.6665,194.01259 -382.3385,267.10329 -597.64691,174.26339 l -1.63996,-0.7016 -11.28232,26.1706 1.63999,0.7112 c 227.7015,98.184 493.2663,20.741 632.5114,-184.43897 139.2452,-205.18004 113.1239,-480.57128 -62.2157,-655.91101 l -1.2646,-1.26457 z m 5.004,0.0544 15.0957,-15.09579 c 172.9932,174.19899 198.5363,446.77775 60.5808,650.05745 C 1336.3808,1063.241 1073.6402,1140.1774 847.86576,1043.754 l 8.45682,-19.6009 c 216.48962,92.4212 468.06072,18.7295 600.33902,-176.18496 132.2788,-194.91491 107.8425,-455.91915 -58.0021,-622.96803 z"
       id="circle11486" />
    <path
       style="color:#000000;fill:#ff8c00;fill-opacity:1;fill-rule:evenodd;stroke-width:3.57674;-inkscape-stroke:none;paint-order:markers fill stroke"
       d="m 1394.3372,291.56286 1.1213,1.39795 c 116.0827,144.10901 130.6937,344.97949 36.6873,504.37014 -94.0064,159.39077 -276.8733,243.79715 -459.15692,211.93385 l -1.76355,-0.3111 -3.4726,19.8923 1.76344,0.3015 c 190.50303,33.2997 381.78203,-54.98388 480.02733,-221.56167 98.2452,-166.57764 82.965,-376.69821 -38.352,-527.30529 l -1.1214,-1.38799 z m 4.9792,0.58286 10.1561,-8.18019 c 119.3584,149.35554 134.1784,357.01425 36.9886,521.80253 -97.1892,164.78716 -286.1,252.29404 -474.55891,220.10404 l 2.24258,-12.8532 c 183.15213,31.2652 366.63063,-53.72262 461.08343,-213.87009 94.4513,-160.14501 80.0627,-361.84503 -35.9118,-507.00309 z"
       id="circle11488" />
    <path
       style="color:#000000;fill:#0066ff;fill-opacity:1;fill-rule:evenodd;stroke:none;stroke-width:3.57674;-inkscape-stroke:none;paint-order:markers fill stroke"
       d="m 795.67269,813.08876 c 107.22199,112.71404 275.96921,141.2126 414.25971,69.96114 138.2906,-71.25125 213.0364,-225.20265 183.4909,-377.93796 l -5.4386,1.05217 c 29.0829,150.34405 -44.4609,301.82519 -180.5863,371.96095 -136.1254,70.13575 -302.16647,42.09457 -407.70975,-68.85472 z"
       id="path11490" />
    <path
       style="color:#000000;fill:#66cdaa;fill-opacity:0.996078;fill-rule:evenodd;stroke:none;stroke-width:3.57674;-inkscape-stroke:none;paint-order:markers fill stroke"
       d="m 810.79316,912.27332 -6.35251,9.06928 c 131.54392,92.1776 303.71835,102.7381 445.53815,27.3216 141.8197,-75.4165 229.3336,-224.07622 226.4566,-384.67578 l -11.0798,0.20256 c 2.8028,156.45516 -82.4184,301.21737 -220.5784,374.68764 -138.1599,73.47038 -305.83476,63.19348 -433.98404,-26.6053 z"
       id="circle11492" />
  </g>
</svg>
