<?xml version="1.0" encoding="UTF-8" standalone="no"?>
<!-- Created with Inkscape (http://www.inkscape.org/) -->

<svg
   width="1920"
   height="1080"
   viewBox="0 0 1920 1080"
   version="1.1"
   id="svg5"
   inkscape:version="1.1.1 (1:1.1+202109281944+c3084ef5ed)"
   sodipodi:docname="meater.svg"
   xmlns:inkscape="http://www.inkscape.org/namespaces/inkscape"
   xmlns:sodipodi="http://sodipodi.sourceforge.net/DTD/sodipodi-0.dtd"
   xmlns="http://www.w3.org/2000/svg"
   xmlns:svg="http://www.w3.org/2000/svg">
  <sodipodi:namedview
     id="namedview7"
     pagecolor="#ffffff"
     bordercolor="#666666"
     borderopacity="1.0"
     inkscape:pageshadow="2"
     inkscape:pageopacity="0.0"
     inkscape:pagecheckerboard="0"
     inkscape:document-units="px"
     showgrid="false"
     inkscape:zoom="0.70737049"
     inkscape:cx="854.5734"
     inkscape:cy="475.70546"
     inkscape:window-width="1294"
     inkscape:window-height="704"
     inkscape:window-x="0"
     inkscape:window-y="0"
     inkscape:window-maximized="1"
     inkscape:current-layer="layer1" />
  <defs
     id="defs2" />
  <g
     inkscape:label="Layer 1"
     inkscape:groupmode="layer"
     id="layer1">
    <path
       style="fill:#5c51ff;fill-opacity:1;fill-rule:evenodd;stroke-width:1.02311"
       d="m 645.03912,367.18705 a 236.99486,214.85887 0 0 0 -10.88086,63.64258 236.99486,214.85887 0 0 0 1.67383,21.22461 179.22841,171.26392 0 0 1 29.28516,-73.27539 z"
       id="path1876" />
    <path
       style="fill:#003bd8;fill-opacity:1;fill-rule:evenodd;stroke-width:1.02311"
       d="m 670.9942,315.97416 a 236.99486,214.85887 0 0 0 -22.69336,43.28125 l 22.05078,12.73047 a 179.22841,171.26392 0 0 1 28.29493,-28.35938 z"
       id="path1874" />
    <path
       style="fill:#730fd7;fill-opacity:1;fill-rule:evenodd;stroke-width:1.02311"
       d="m 707.5235,276.09721 a 236.99486,214.85887 0 0 0 -31.25195,33.13476 l 28.91406,28.91211 a 179.22841,171.26392 0 0 1 28.46679,-16.79101 z"
       id="path1870" />
    <path
       style="fill:#ffd42a;fill-opacity:1;fill-rule:evenodd;stroke-width:1.02311"
       d="m 1016.9669,262.08158 -84.77352,84.77344 a 179.22841,171.26392 0 0 1 24.2383,24.7168 l 109.07812,-62.97657 a 236.99486,214.85887 0 0 0 -48.5429,-46.51367 z"
       id="path1868" />
    <path
       style="opacity:1;fill:#0000f4;fill-opacity:1;fill-rule:evenodd;stroke-width:1.02311"
       d="m 754.82037,244.24174 a 236.99486,214.85887 0 0 0 -40.85351,26.01367 l 27.64258,47.87891 a 179.22841,171.26392 0 0 1 30.39648,-9.75391 z"
       id="path1866" />
    <path
       style="fill:#ffd42a;fill-opacity:0.866667;fill-rule:evenodd;stroke-width:1.02311"
       d="m 952.01378,229.44096 -54.3301,94.10351 a 179.22841,171.26392 0 0 1 27.8906,17.90821 l 84.23052,-84.23047 a 236.99486,214.85887 0 0 0 -57.79102,-27.78125 z"
       id="path1864" />
    <path
       style="fill:#6b9eb3;fill-opacity:1;fill-rule:evenodd;stroke-width:1.02311"
       d="m 811.61139,223.24955 a 236.99486,214.85887 0 0 0 -49.02149,17.14648 l 17.69532,66.04297 a 179.22841,171.26392 0 0 1 31.32617,-3.14062 z"
       id="path1862" />
    <path
       style="fill:#4bc43c;fill-opacity:0.889701;fill-rule:evenodd;stroke-width:1.02311"
       d="m 884.44728,216.83353 -24.8164,92.61329 a 179.22841,171.26392 0 0 1 30.3243,10.48242 l 53.8476,-93.26563 a 236.99486,214.85887 0 0 0 -59.3555,-9.83008 z"
       id="path1860" />
    <path
       style="fill:#afa933;fill-opacity:1;fill-rule:evenodd;stroke-width:1.02311"
       d="m 871.15238,215.97221 a 236.99486,214.85887 0 0 0 -51.04099,5.60156 v 82.09375 a 179.22841,171.26392 0 0 1 31.23049,3.8789 l 24.457,-91.27343 a 236.99486,214.85887 0 0 0 -4.6465,-0.30078 z"
       id="ellipse197" />
    <path
       id="rect2262"
       style="fill:#000000;fill-opacity:1;stroke-width:0.639498"
       inkscape:transform-center-x="0.96287386"
       inkscape:transform-center-y="-151.89771"
       d="m 816.10944,313.02689 a 150.56982,143.87888 0 0 0 -0.92383,0.0625 v 15.28321 a 134.58456,128.60396 0 0 1 0.92383,-0.0703 134.58456,128.60396 0 0 1 3.13867,0.23633 v -15.4375 a 150.56982,143.87888 0 0 0 -3.13867,-0.0742 z m -33.55469,3.98438 a 150.56982,143.87888 0 0 0 -3.98438,0.83008 l 3.9961,14.91015 a 134.58456,128.60396 0 0 1 3.96289,-0.9082 z m 69.22073,0.13086 -4.0625,15.16406 a 134.58456,128.60396 0 0 1 3.9629,0.91016 l 4.039,-15.07813 a 150.56982,143.87888 0 0 0 -3.9394,-0.99609 z m -104.42972,12.1289 a 150.56982,143.87888 0 0 0 -3.60351,1.88086 l 7.66601,13.27735 a 134.58456,128.60396 0 0 1 3.50391,-2.05274 z m 139.17382,0.47071 -7.7793,13.47461 a 134.58456,128.60396 0 0 1 3.5039,2.05273 l 7.8633,-13.61914 a 150.56982,143.87888 0 0 0 -3.5879,-1.9082 z M 715.59381,349.9976 a 150.56982,143.87888 0 0 0 -2.93945,2.80664 l 10.97461,10.97461 a 134.58456,128.60396 0 0 1 3.16406,-2.58203 z m 201.90427,0.54687 -11.291,11.29102 a 134.58456,128.60396 0 0 1 3.1641,2.58008 l 11.1328,-11.13477 a 150.56982,143.87888 0 0 0 -3.0059,-2.73633 z m -227.74216,28.17188 a 150.56982,143.87888 0 0 0 -2.07812,3.49023 l 13.8496,7.9961 a 134.58456,128.60396 0 0 1 2.19532,-3.42383 z" />
    <path
       id="path31"
       style="fill-rule:evenodd;stroke-width:0.130154"
       d="m 786.74243,456.90611 a 29.366638,28.061657 0 0 0 29.36664,28.06165 29.366638,28.061657 0 0 0 29.36661,-28.06165 29.366638,28.061657 0 0 0 -29.36661,-28.06166 29.366638,28.061657 0 0 0 -29.36664,28.06166 z" />
    <path
       id="rect25543"
       style="fill:#000000;stroke-width:0.914871"
       d="m 810.99533,345.45014 h 6.88367 l 9.42121,113.45583 h -24.38319 z"
       sodipodi:nodetypes="ccccc"
       inkscape:transform-center-x="-0.61244198"
       inkscape:transform-center-y="-56.033656" />
    <path
       style="fill:#5c51ff;fill-opacity:1;fill-rule:evenodd;stroke-width:1.02311"
       d="m 135.4525,361.49622 a 236.99486,214.85887 0 0 0 -10.88086,63.64258 236.99486,214.85887 0 0 0 1.67383,21.22461 179.22841,171.26392 0 0 1 29.28516,-73.27539 z"
       id="path26734" />
    <path
       style="fill:#003bd8;fill-opacity:1;fill-rule:evenodd;stroke-width:1.02311"
       d="m 161.40758,310.28333 a 236.99486,214.85887 0 0 0 -22.69336,43.28125 l 22.05078,12.73047 a 179.22841,171.26392 0 0 1 28.29493,-28.35938 z"
       id="path26736" />
    <path
       style="fill:#730fd7;fill-opacity:1;fill-rule:evenodd;stroke-width:1.02311"
       d="m 197.93688,270.40638 a 236.99486,214.85887 0 0 0 -31.25195,33.13476 l 28.91406,28.91211 a 179.22841,171.26392 0 0 1 28.46679,-16.79101 z"
       id="path26738" />
    <path
       style="fill:#ffd42a;fill-opacity:1;fill-rule:evenodd;stroke-width:1.02311"
       d="m 507.38026,256.39075 -84.7735,84.77344 a 179.22841,171.26392 0 0 1 24.2383,24.7168 l 109.0781,-62.97657 a 236.99486,214.85887 0 0 0 -48.5429,-46.51367 z"
       id="path26740" />
    <path
       style="opacity:1;fill:#0000f4;fill-opacity:1;fill-rule:evenodd;stroke-width:1.02311"
       d="m 245.23375,238.55091 a 236.99486,214.85887 0 0 0 -40.85351,26.01367 l 27.64258,47.87891 a 179.22841,171.26392 0 0 1 30.39648,-9.75391 z"
       id="path26742" />
    <path
       style="fill:#ffd42a;fill-opacity:0.866667;fill-rule:evenodd;stroke-width:1.02311"
       d="m 442.42716,223.75013 -54.3301,94.10351 a 179.22841,171.26392 0 0 1 27.8906,17.90821 l 84.2305,-84.23047 a 236.99486,214.85887 0 0 0 -57.791,-27.78125 z"
       id="path26744" />
    <path
       style="fill:#6b9eb3;fill-opacity:1;fill-rule:evenodd;stroke-width:1.02311"
       d="m 302.02477,217.55872 a 236.99486,214.85887 0 0 0 -49.02149,17.14648 l 17.69532,66.04297 a 179.22841,171.26392 0 0 1 31.32617,-3.14062 z"
       id="path26746" />
    <path
       style="fill:#4bc43c;fill-opacity:0.889701;fill-rule:evenodd;stroke-width:1.02311"
       d="m 374.86066,211.1427 -24.8164,92.61329 a 179.22841,171.26392 0 0 1 30.3243,10.48242 l 53.8476,-93.26563 a 236.99486,214.85887 0 0 0 -59.3555,-9.83008 z"
       id="path26748" />
    <path
       style="fill:#afa933;fill-opacity:1;fill-rule:evenodd;stroke-width:1.02311"
       d="m 361.56576,210.28138 a 236.99486,214.85887 0 0 0 -51.04099,5.60156 v 82.09375 a 179.22841,171.26392 0 0 1 31.23049,3.8789 l 24.457,-91.27343 a 236.99486,214.85887 0 0 0 -4.6465,-0.30078 z"
       id="path26750" />
    <path
       id="path26752"
       style="fill:#000000;fill-opacity:1;stroke-width:0.639498"
       inkscape:transform-center-x="0.96287386"
       inkscape:transform-center-y="-151.89771"
       d="m 306.52282,307.33606 a 150.56982,143.87888 0 0 0 -0.92383,0.0625 v 15.28321 a 134.58456,128.60396 0 0 1 0.92383,-0.0703 134.58456,128.60396 0 0 1 3.13867,0.23633 v -15.4375 a 150.56982,143.87888 0 0 0 -3.13867,-0.0742 z m -33.55469,3.98438 a 150.56982,143.87888 0 0 0 -3.98438,0.83008 l 3.9961,14.91015 a 134.58456,128.60396 0 0 1 3.96289,-0.9082 z m 69.22073,0.13086 -4.0625,15.16406 a 134.58456,128.60396 0 0 1 3.9629,0.91016 l 4.039,-15.07813 a 150.56982,143.87888 0 0 0 -3.9394,-0.99609 z m -104.42972,12.1289 a 150.56982,143.87888 0 0 0 -3.60351,1.88086 l 7.66601,13.27735 a 134.58456,128.60396 0 0 1 3.50391,-2.05274 z m 139.17382,0.47071 -7.7793,13.47461 a 134.58456,128.60396 0 0 1 3.5039,2.05273 l 7.8633,-13.61914 a 150.56982,143.87888 0 0 0 -3.5879,-1.9082 z m -170.92577,20.25586 a 150.56982,143.87888 0 0 0 -2.93945,2.80664 l 10.97461,10.97461 a 134.58456,128.60396 0 0 1 3.16406,-2.58203 z m 201.90427,0.54687 -11.291,11.29102 a 134.58456,128.60396 0 0 1 3.1641,2.58008 l 11.1328,-11.13477 a 150.56982,143.87888 0 0 0 -3.0059,-2.73633 z M 180.1693,373.02552 a 150.56982,143.87888 0 0 0 -2.07812,3.49023 l 13.8496,7.9961 a 134.58456,128.60396 0 0 1 2.19532,-3.42383 z" />
    <path
       id="path26754"
       style="fill-rule:evenodd;stroke-width:0.130154"
       d="m 277.15581,451.21528 a 29.366638,28.061657 0 0 0 29.36664,28.06165 29.366638,28.061657 0 0 0 29.36661,-28.06165 29.366638,28.061657 0 0 0 -29.36661,-28.06166 29.366638,28.061657 0 0 0 -29.36664,28.06166 z" />
    <path
       id="path26756"
       style="fill:#000000;stroke-width:0.914871"
       d="m 205.50475,399.17191 3.44183,-5.96143 102.96624,48.56891 -12.1916,21.11646 z"
       sodipodi:nodetypes="ccccc"
       inkscape:transform-center-x="46.200768"
       inkscape:transform-center-y="-24.467716" />
    <path
       style="fill:#5c51ff;fill-opacity:1;fill-rule:evenodd;stroke-width:1.02311"
       d="m 1158.9161,352.67216 a 236.99486,214.85887 0 0 0 -10.8809,63.64258 236.99486,214.85887 0 0 0 1.6739,21.22461 179.22841,171.26392 0 0 1 29.2851,-73.27539 z"
       id="path26758" />
    <path
       style="fill:#003bd8;fill-opacity:1;fill-rule:evenodd;stroke-width:1.02311"
       d="m 1184.8712,301.45927 a 236.99486,214.85887 0 0 0 -22.6934,43.28125 l 22.0508,12.73047 a 179.22841,171.26392 0 0 1 28.2949,-28.35938 z"
       id="path26760" />
    <path
       style="fill:#730fd7;fill-opacity:1;fill-rule:evenodd;stroke-width:1.02311"
       d="m 1221.4005,261.58232 a 236.99486,214.85887 0 0 0 -31.252,33.13476 l 28.9141,28.91211 a 179.22841,171.26392 0 0 1 28.4668,-16.79101 z"
       id="path26762" />
    <path
       style="fill:#ffd42a;fill-opacity:1;fill-rule:evenodd;stroke-width:1.02311"
       d="m 1530.8439,247.56669 -84.7735,84.77344 a 179.22841,171.26392 0 0 1 24.2383,24.7168 l 109.0781,-62.97657 a 236.99486,214.85887 0 0 0 -48.5429,-46.51367 z"
       id="path26764" />
    <path
       style="opacity:1;fill:#0000f4;fill-opacity:1;fill-rule:evenodd;stroke-width:1.02311"
       d="m 1268.6973,229.72685 a 236.99486,214.85887 0 0 0 -40.8535,26.01367 l 27.6426,47.87891 a 179.22841,171.26392 0 0 1 30.3965,-9.75391 z"
       id="path26766" />
    <path
       style="fill:#ffd42a;fill-opacity:0.866667;fill-rule:evenodd;stroke-width:1.02311"
       d="m 1465.8908,214.92607 -54.3301,94.10351 a 179.22841,171.26392 0 0 1 27.8906,17.90821 l 84.2305,-84.23047 a 236.99486,214.85887 0 0 0 -57.791,-27.78125 z"
       id="path26768" />
    <path
       style="fill:#6b9eb3;fill-opacity:1;fill-rule:evenodd;stroke-width:1.02311"
       d="m 1325.4884,208.73466 a 236.99486,214.85887 0 0 0 -49.0215,17.14648 l 17.6953,66.04297 a 179.22841,171.26392 0 0 1 31.3262,-3.14062 z"
       id="path26770" />
    <path
       style="fill:#4bc43c;fill-opacity:0.889701;fill-rule:evenodd;stroke-width:1.02311"
       d="m 1398.3243,202.31864 -24.8164,92.61329 a 179.22841,171.26392 0 0 1 30.3243,10.48242 l 53.8476,-93.26563 a 236.99486,214.85887 0 0 0 -59.3555,-9.83008 z"
       id="path26772" />
    <path
       style="fill:#afa933;fill-opacity:1;fill-rule:evenodd;stroke-width:1.02311"
       d="m 1385.0294,201.45732 a 236.99486,214.85887 0 0 0 -51.041,5.60156 v 82.09375 a 179.22841,171.26392 0 0 1 31.2305,3.8789 l 24.457,-91.27343 a 236.99486,214.85887 0 0 0 -4.6465,-0.30078 z"
       id="path26774" />
    <path
       id="path26776"
       style="fill:#000000;fill-opacity:1;stroke-width:0.639498"
       inkscape:transform-center-x="0.96287386"
       inkscape:transform-center-y="-151.89771"
       d="m 1329.9864,298.512 a 150.56982,143.87888 0 0 0 -0.9238,0.0625 v 15.28321 a 134.58456,128.60396 0 0 1 0.9238,-0.0703 134.58456,128.60396 0 0 1 3.1387,0.23633 v -15.4375 a 150.56982,143.87888 0 0 0 -3.1387,-0.0742 z m -33.5547,3.98438 a 150.56982,143.87888 0 0 0 -3.9844,0.83008 l 3.9961,14.91015 a 134.58456,128.60396 0 0 1 3.9629,-0.9082 z m 69.2208,0.13086 -4.0625,15.16406 a 134.58456,128.60396 0 0 1 3.9629,0.91016 l 4.039,-15.07813 a 150.56982,143.87888 0 0 0 -3.9394,-0.99609 z m -104.4298,12.1289 a 150.56982,143.87888 0 0 0 -3.6035,1.88086 l 7.666,13.27735 a 134.58456,128.60396 0 0 1 3.5039,-2.05274 z m 139.1739,0.47071 -7.7793,13.47461 a 134.58456,128.60396 0 0 1 3.5039,2.05273 l 7.8633,-13.61914 a 150.56982,143.87888 0 0 0 -3.5879,-1.9082 z m -170.9258,20.25586 a 150.56982,143.87888 0 0 0 -2.9395,2.80664 l 10.9746,10.97461 a 134.58456,128.60396 0 0 1 3.1641,-2.58203 z m 201.9043,0.54687 -11.291,11.29102 a 134.58456,128.60396 0 0 1 3.1641,2.58008 l 11.1328,-11.13477 a 150.56982,143.87888 0 0 0 -3.0059,-2.73633 z m -227.7422,28.17188 a 150.56982,143.87888 0 0 0 -2.0781,3.49023 l 13.8496,7.9961 a 134.58456,128.60396 0 0 1 2.1953,-3.42383 z" />
    <path
       id="path26778"
       style="fill-rule:evenodd;stroke-width:0.130154"
       d="m 1300.6194,442.39122 a 29.366638,28.061657 0 0 0 29.3666,28.06165 29.366638,28.061657 0 0 0 29.3667,-28.06165 29.366638,28.061657 0 0 0 -29.3667,-28.06166 29.366638,28.061657 0 0 0 -29.3666,28.06166 z" />
    <path
       id="path26780"
       style="fill:#000000;stroke-width:0.914871"
       d="m 1405.6321,361.48687 4.8676,4.86751 -73.5636,86.88718 -17.2416,-17.24152 z"
       sodipodi:nodetypes="ccccc"
       inkscape:transform-center-x="-36.723942"
       inkscape:transform-center-y="-36.332606" />
  </g>
</svg>
